<?xml version="1.0" standalone="no"?>
<!DOCTYPE svg PUBLIC "-//W3C//DTD SVG 1.1//EN" "http://www.w3.org/Graphics/SVG/1.1/DTD/svg11.dtd" >
<svg>
<metadata>
Created by FontForge 20110222 at Wed Apr  1 05:14:47 2015
 By deploy user
modified (aar, 2006) | Copyright 2005 Monotype Imaging, Inc. All rights reserved. Neo Sans is designed by Sebastian Lester.
</metadata>
<defs>
<font id="NeoSansCyr-Medium" horiz-adv-x="1290" >
  <font-face 
    font-family="Neo Sans Cyr Medium"
    font-weight="400"
    font-stretch="normal"
    units-per-em="2048"
    panose-1="2 11 7 3 0 0 0 0 0 4"
    ascent="1638"
    descent="-410"
    x-height="1155"
    cap-height="1522"
    bbox="-74 -442 2298 1948"
    underline-thickness="145"
    underline-position="-16"
    unicode-range="U+0020-2122"
  />
<missing-glyph horiz-adv-x="2048" 
d="M256 0v1536h1536v-1536h-1536zM384 128h1280v1280h-1280v-1280z" />
    <glyph glyph-name=".notdef" horiz-adv-x="2048" 
d="M256 0v1536h1536v-1536h-1536zM384 128h1280v1280h-1280v-1280z" />
    <glyph glyph-name="NULL" horiz-adv-x="0" 
 />
    <glyph glyph-name="nonmarkingreturn" horiz-adv-x="512" 
 />
    <glyph glyph-name="space" unicode=" " horiz-adv-x="512" 
 />
    <glyph glyph-name="exclam" unicode="!" horiz-adv-x="524" 
d="M401 1520l-30 -1041q0 -17 -12 -29t-29 -12h-133q-17 0 -30 11.5t-13 29.5l-31 1041q0 15 13 27t30 12h194q17 0 29 -12t12 -27zM393 35q0 -17 -11 -29t-28 -12h-184q-17 0 -28 12t-11 29v231q0 39 39 39h184q39 0 39 -39v-231z" />
    <glyph glyph-name="percent" unicode="%" horiz-adv-x="1661" 
d="M666 1022q0 -344 -291 -344q-143 0 -218 87.5t-75 256.5v168q0 342 293 342q291 0 291 -342v-168zM492 1022v168q0 104 -29.5 147t-87.5 43q-63 0 -91 -46.5t-28 -143.5v-168q0 -193 119 -193q62 0 89.5 47t27.5 146zM1362 1522q18 0 18 -17q0 -10 -8 -24l-854 -1444
q-24 -43 -47 -43h-172q-20 0 -20 18q0 11 8 25l854 1444q24 41 49 41h172zM1581 332q0 -344 -291 -344q-143 0 -218 87.5t-75 256.5v168q0 169 75 256.5t218 87.5q291 0 291 -344v-168zM1407 332v168q0 104 -29 147t-88 43q-63 0 -91 -46.5t-28 -143.5v-168q0 -98 28 -144.5
t91 -46.5t90 46.5t27 144.5z" />
    <glyph glyph-name="ampersand" unicode="&#x26;" horiz-adv-x="1470" 
d="M1198 256q202 -214 205.5 -218t3.5 -15q0 -23 -23 -23h-229q-19 0 -26 7l-85 89q-161 -112 -389 -112q-252 0 -397 102t-145 291v20q0 118 65.5 208.5t214.5 180.5q-130 149 -169.5 232t-39.5 164v18q0 156 119.5 247t347.5 91q201 0 321 -92.5t120 -245.5v-18
q0 -105 -65.5 -204.5t-287.5 -234.5l308 -327q53 121 53 293v24q0 41 35 41h149q37 0 37 -41v-24q0 -268 -123 -453zM848 1182v18q0 146 -197 146q-106 0 -165.5 -38.5t-59.5 -107.5v-18q0 -62 26 -114.5t136 -162.5q180 106 220 155.5t40 121.5zM903 246l-358 381
q-72 -43 -112 -92t-40 -138v-20q0 -91 70.5 -142t191.5 -51q148 0 248 62z" />
    <glyph glyph-name="parenleft" unicode="(" horiz-adv-x="682" 
d="M389 541q0 -477 221 -887q11 -17 11 -33q0 -20 -25 -20h-145q-45 0 -63 18t-100 159t-128.5 330t-46.5 433v39q0 243 47 433t127.5 330t99 159.5t64.5 19.5h145q25 0 25 -21q0 -16 -11 -33q-221 -410 -221 -888v-39z" />
    <glyph glyph-name="parenright" unicode=")" horiz-adv-x="682" 
d="M569 541q0 -244 -46.5 -433t-128 -329t-99.5 -159t-64 -19h-145q-25 0 -25 20q0 16 11 33q221 410 221 887v39q0 478 -221 888q-11 17 -11 33q0 21 25 21h145q46 0 64 -18.5t99.5 -159.5t128 -331t46.5 -433v-39z" />
    <glyph glyph-name="asterisk" unicode="*" horiz-adv-x="969" 
d="M567 1241q254 84 262 84q21 0 27 -20l33 -101q2 -4 2 -10q0 -24 -34 -34l-241 -73l109 -148q47 -64 50 -71.5t3 -15.5q0 -13 -24 -31l-52 -39q-28 -20 -38 -20q-17 0 -28 15l-151 214q-149 -212 -156.5 -220.5t-21.5 -8.5q-8 0 -28 13l-50 36q-30 21 -34.5 27t-4.5 14
q0 9 3.5 16.5t55.5 77.5l105 141l-183 56q-72 22 -81.5 30.5t-9.5 20.5q0 4 18.5 60.5t23.5 63.5t19 7q8 0 265 -84l-5 256q0 39 31 39h107q28 0 28 -41v-254z" />
    <glyph glyph-name="comma" unicode="," horiz-adv-x="530" 
d="M387 311q29 0 29 -24q0 -5 -93 -229.5t-100.5 -240.5t-27.5 -16h-142q-30 0 -30 29q0 5 64 225.5t71 238t32 17.5h197z" />
    <glyph glyph-name="hyphen" unicode="-" horiz-adv-x="657" 
d="M569 565q0 -37 -39 -37h-401q-41 0 -41 37v129q0 17 12 28t29 11h401q39 0 39 -39v-129z" />
    <glyph glyph-name="period" unicode="." horiz-adv-x="530" 
d="M397 41q0 -17 -12 -29t-29 -12h-182q-17 0 -29 12t-12 29v231q0 17 12 28t29 11h182q17 0 29 -11t12 -28v-231z" />
    <glyph glyph-name="slash" unicode="/" horiz-adv-x="788" 
d="M725 1522q33 0 33 -31q0 -4 -2 -10l-445 -1438q-13 -43 -39 -43h-206q-14 0 -24.5 10t-10.5 23q0 3 2 10l446 1438q13 41 39 41h207z" />
    <glyph glyph-name="zero" unicode="0" 
d="M1180 684q0 -354 -131.5 -527t-403.5 -173t-403 173t-131 527v152q0 354 131.5 528t402.5 174q272 0 403.5 -174t131.5 -528v-152zM895 684v152q0 236 -60 353.5t-190 117.5t-190 -117.5t-60 -353.5v-152q0 -236 60 -352.5t190 -116.5q131 0 190.5 116.5t59.5 352.5z" />
    <glyph glyph-name="one" unicode="1" 
d="M821 41q0 -17 -12 -29t-29 -12h-200q-17 0 -29 12t-12 29v1194l-242 -82q-10 -4 -25 -4q-22 0 -22 25v198q0 12 4.5 16.5t107.5 40.5l182 65q79 28 103 28h135q39 0 39 -39v-1442z" />
    <glyph glyph-name="two" unicode="2" 
d="M401 233h674q41 0 41 -36v-156q0 -17 -12 -29t-29 -12h-868q-17 0 -29 12t-12 29v201q0 99 36.5 197.5t107.5 186.5t168 153l202 134q129 86 158.5 128t29.5 122q0 83 -55 117.5t-184 34.5q-82 0 -195 -10l-215 -21h-4q-37 0 -37 41v123q0 24 32 36.5t165 33t254 20.5
q261 0 382.5 -89t121.5 -286q0 -118 -59.5 -211.5t-196.5 -185.5l-196 -130q-157 -106 -218.5 -192t-61.5 -202v-9z" />
    <glyph glyph-name="three" unicode="3" 
d="M1118 426q0 -219 -142 -330.5t-372 -111.5q-137 0 -266 24t-147.5 35t-18.5 31v127q0 37 37 37h4q283 -29 391 -29q119 0 174.5 51.5t55.5 165.5v43q0 207 -189 207h-362q-39 0 -39 39v129q0 39 39 39h362q95 0 142 46.5t47 153.5v33q0 197 -230 197q-72 0 -176 -9
l-215 -20h-4q-37 0 -37 37v127q0 18 17.5 30.5t150.5 36t264 23.5q252 0 383 -106.5t131 -315.5v-33q0 -207 -176 -303q84 -46 130 -129t46 -182v-43z" />
    <glyph glyph-name="four" unicode="4" 
d="M1212 408q0 -17 -12 -29t-29 -12h-151v-326q0 -41 -37 -41h-211q-37 0 -37 41v326h-614q-17 0 -29 12t-12 29v165q0 36 22 66l631 846q26 37 60 37h186q17 0 29 -12t12 -29v-889h151q17 0 29 -12t12 -29v-143zM737 592v520q0 12 -6 12t-14 -12l-359 -498q-6 -6 -6 -12
q0 -10 17 -10h368z" />
    <glyph glyph-name="five" unicode="5" 
d="M1130 485q0 -243 -134.5 -372t-391.5 -129q-122 0 -254.5 22t-155 34.5t-22.5 39.5v121q0 37 37 37h4q227 -29 391 -29q125 0 183.5 62.5t58.5 213.5v11q0 125 -82.5 177t-280.5 52h-276q-9 0 -16 9t-7 18v4l66 729q1 15 13 26t28 11h743q17 0 29 -11.5t12 -27.5v-156
q0 -16 -12 -27.5t-29 -11.5h-555l-30 -340h34q347 0 497 -113.5t150 -338.5v-11z" />
    <glyph glyph-name="six" unicode="6" 
d="M1188 492q0 -234 -141 -371t-388 -137q-252 0 -394 163t-142 469v236q0 363 140 524.5t427 161.5q132 0 248.5 -16.5t147 -25.5t30.5 -40v-127q0 -43 -39 -43h-8q-169 27 -379 27q-166 0 -226 -89t-63 -284q126 23 285 23q238 0 370 -115.5t132 -335.5v-20zM909 492v20
q0 244 -280 244q-108 0 -228 -23v-117q0 -139 25 -229.5t79 -136t154 -45.5q250 0 250 287z" />
    <glyph glyph-name="seven" unicode="7" 
d="M1135 1329q0 -14 -37 -94l-553 -1196q-18 -39 -56 -39h-213q-28 0 -28 31q0 10 4 18l588 1225v4q0 10 -11 10h-630q-41 0 -41 37v158q0 16 12 27.5t29 11.5h854q33 0 57.5 -24.5t24.5 -57.5v-111z" />
    <glyph glyph-name="eight" unicode="8" 
d="M1182 440q0 -143 -64.5 -246t-185 -156.5t-277.5 -53.5h-20q-239 0 -381.5 119.5t-142.5 336.5v19q0 199 186 334q-178 117 -178 319v8q0 217 143 317.5t373 100.5h20q246 0 383.5 -107t137.5 -311v-8q0 -201 -181 -319q187 -135 187 -334v-19zM911 1104v8
q0 217 -256 217h-20q-252 0 -252 -217v-8q0 -100 57 -155.5t164 -55.5h84q108 0 165.5 56t57.5 155zM905 440v19q0 95 -57 160t-160 65h-84q-103 0 -160 -65t-57 -160v-19q0 -107 64 -175t184 -68h20q117 0 183.5 66.5t66.5 176.5z" />
    <glyph glyph-name="nine" unicode="9" 
d="M1165 670q0 -354 -135.5 -520t-431.5 -166q-132 0 -248.5 16t-147 25.5t-30.5 40.5v127q0 43 39 43h8q169 -27 379 -27q166 0 226 89t63 284q-126 -23 -285 -23q-238 0 -370 115t-132 336v20q0 231 139.5 369.5t389.5 138.5q252 0 394 -163.5t142 -469.5v-235zM887 788
v117q0 206 -56 309t-202 103q-250 0 -250 -287v-20q0 -244 280 -244q108 0 228 22z" />
    <glyph glyph-name="colon" unicode=":" horiz-adv-x="530" 
d="M397 848q0 -17 -12 -28t-29 -11h-182q-17 0 -29 11t-12 28v231q0 17 12 29t29 12h182q17 0 29 -12t12 -29v-231zM397 41q0 -17 -12 -29t-29 -12h-182q-17 0 -29 12t-12 29v231q0 17 12 28t29 11h182q17 0 29 -11t12 -28v-231z" />
    <glyph glyph-name="semicolon" unicode=";" horiz-adv-x="530" 
d="M397 848q0 -17 -12 -28t-29 -11h-182q-17 0 -29 11t-12 28v231q0 17 12 29t29 12h182q17 0 29 -12t12 -29v-231zM373 311q28 0 28 -24q0 -5 -93 -229.5t-100 -240.5t-28 -16h-141q-31 0 -31 29q0 5 64 225.5t71.5 238t32.5 17.5h197z" />
    <glyph glyph-name="question" unicode="?" horiz-adv-x="895" 
d="M834 1186q0 -97 -43.5 -171.5t-102.5 -144.5q-158 -186 -188.5 -228t-30.5 -87v-78q0 -15 -12 -27t-29 -12h-170q-39 0 -39 39v78q0 96 24 156t97 145q109 126 149.5 177t40.5 153v33q0 75 -118 75q-67 0 -150 -7l-158 -15h-8q-35 0 -35 45v127q0 34 13 46.5t119 30
t219 17.5q225 0 323.5 -77t98.5 -242v-33zM477 39q0 -17 -12 -28t-29 -11h-184q-17 0 -29 11t-12 28v231q0 17 12 29t29 12h184q17 0 29 -12t12 -29v-231z" />
    <glyph glyph-name="A" unicode="A" horiz-adv-x="1323" 
d="M426 424l-61 -250q-34 -142 -36.5 -149.5t-13 -16t-22.5 -8.5h-217q-37 0 -37 35q0 2 2 10l336 1284q54 209 285 209q230 0 284 -209l338 -1294q0 -35 -37 -35h-217q-31 0 -39 34l-94 390h-471zM842 657l-105 433q-47 192 -53 200t-22 8q-24 0 -29 -17l-152 -624h361z
" />
    <glyph glyph-name="B" unicode="B" horiz-adv-x="1331" 
d="M1229 426q0 -223 -153 -332.5t-470 -109.5q-134 0 -254.5 9.5t-159 32t-38.5 91.5v1290q0 61 28.5 87t164.5 35t241 9q631 0 631 -416v-41q0 -105 -49 -187.5t-140 -121.5q199 -86 199 -311v-35zM942 1077v29q0 108 -79 152.5t-275 44.5q-63 0 -150 -5v-415h260
q244 0 244 194zM950 430v27q0 103 -64 160t-188 57h-260v-451l168 -4q182 0 263 46.5t81 164.5z" />
    <glyph glyph-name="C" unicode="C" horiz-adv-x="1153" 
d="M1061 63q0 -32 -32.5 -43.5t-134.5 -23.5t-202 -12q-261 0 -420 159t-159 467v301q0 240 88 379.5t218 193.5t273 54q98 0 201.5 -12t135.5 -24t32 -44v-137q0 -43 -41 -43h-4q-191 16 -320 16q-297 0 -297 -383v-301q0 -383 297 -383q72 0 160 6l160 11h4q41 0 41 -43
v-138z" />
    <glyph glyph-name="D" unicode="D" horiz-adv-x="1366" 
d="M1253 610q0 -301 -167 -463.5t-476 -162.5q-97 0 -258 10t-179.5 27.5t-18.5 50.5v1378q0 33 18 50.5t179 27.5t259 10q309 0 476 -162.5t167 -464.5v-301zM971 610v301q0 216 -95 301.5t-266 85.5q-43 0 -172 -6v-1063q129 -6 172 -6q189 0 275 96t86 291z" />
    <glyph glyph-name="E" unicode="E" horiz-adv-x="1180" 
d="M1057 55q0 -25 -12.5 -33.5t-128.5 -23t-289 -14.5q-260 0 -366.5 103.5t-106.5 315.5v715q0 213 106.5 316.5t366.5 103.5q144 0 276.5 -14t143 -25t10.5 -33v-131q0 -17 -12 -29t-29 -12h-418q-93 0 -127.5 -39t-34.5 -137v-221h555q17 0 29 -12t12 -29v-147
q0 -17 -12 -29t-29 -12h-555v-265q0 -98 34.5 -137t127.5 -39h418q17 0 29 -12t12 -29v-131z" />
    <glyph glyph-name="F" unicode="F" horiz-adv-x="1180" 
d="M1057 1335q0 -17 -12 -29t-29 -12h-418q-93 0 -127.5 -39t-34.5 -137v-221h555q17 0 29 -12t12 -29v-147q0 -17 -12 -29t-29 -12h-555v-627q0 -17 -12 -29t-29 -12h-200q-17 0 -29 12t-12 29v1077q0 213 106.5 316.5t366.5 103.5q144 0 276.5 -14t143 -25t10.5 -33v-131z
" />
    <glyph glyph-name="G" unicode="G" horiz-adv-x="1300" 
d="M1147 68q0 -28 -19 -41t-148.5 -28t-317.5 -15q-227 0 -388 163t-161 465v295q0 306 156.5 468.5t398.5 162.5q169 0 309 -18t155 -27t15 -35v-137q0 -43 -41 -43h-6q-189 16 -432 16q-125 0 -197 -98.5t-72 -288.5v-295q0 -186 74 -285.5t189 -99.5q108 0 202 6v523
q0 17 11.5 29t27.5 12h203q17 0 29 -12t12 -29v-688z" />
    <glyph glyph-name="H" unicode="H" horiz-adv-x="1458" 
d="M1305 41q0 -17 -12.5 -29t-28.5 -12h-203q-17 0 -29 12t-12 29v627h-582v-627q0 -17 -12 -29t-29 -12h-202q-17 0 -29 12t-12 29v1442q0 16 11.5 27.5t29.5 11.5h202q17 0 29 -11.5t12 -27.5v-565h582v565q0 16 12 27.5t29 11.5h203q17 0 29 -11.5t12 -27.5v-1442z" />
    <glyph glyph-name="I" unicode="I" horiz-adv-x="592" 
d="M438 41q0 -17 -12 -29t-29 -12h-202q-17 0 -29 12t-12 29v1442q0 16 11.5 27.5t29.5 11.5h202q17 0 29 -11.5t12 -27.5v-1442z" />
    <glyph glyph-name="J" unicode="J" horiz-adv-x="592" 
d="M438 -43q0 -157 -77 -228t-250 -71q-33 0 -100.5 6.5t-76 16.5t-8.5 22v145q0 37 41 37h135q33 0 42.5 16.5t9.5 55.5v1526q0 16 11.5 27.5t29.5 11.5h202q17 0 29 -11.5t12 -27.5v-1526z" />
    <glyph glyph-name="K" unicode="K" horiz-adv-x="1317" 
d="M721 784l528 -741q11 -17 11 -25q0 -18 -31 -18h-275q-32 0 -47 23l-469 698v-680q0 -17 -12 -29t-29 -12h-202q-17 0 -29 12t-12 29v1440q0 16 11.5 27.5t29.5 11.5h202q17 0 29 -11.5t12 -27.5v-652l502 674q12 17 47 17h234q39 0 39 -25q0 -14 -15 -33z" />
    <glyph glyph-name="L" unicode="L" horiz-adv-x="1057" 
d="M1016 55q0 -28 -22 -37.5t-141 -21.5t-226 -12q-260 0 -366.5 103.5t-106.5 315.5v1078q0 17 12 29t29 12h202q17 0 29 -12t12 -29v-1078q0 -98 34 -137t126 -39h377q17 0 29 -12t12 -29v-131z" />
    <glyph glyph-name="M" unicode="M" horiz-adv-x="1622" 
d="M1468 31q0 -31 -34 -31h-207q-13 0 -23 12.5t-10 28.5v952q0 21 -6 21q-4 0 -37 -66l-166 -330q-22 -43 -70 -43h-206q-47 0 -66 35l-151 298q-54 106 -58 106q-6 0 -6 -21v-952q0 -16 -10 -28.5t-23 -12.5h-207q-34 0 -34 31v1409q0 34 24 58t58 24h167q52 0 76 -49
l211 -427q103 -209 109 -219t12 -10q7 0 18 21l255 515q64 129 73.5 140.5t26 20t35.5 8.5h167q34 0 58 -24.5t24 -57.5v-1409z" />
    <glyph glyph-name="N" unicode="N" horiz-adv-x="1458" 
d="M1305 82q0 -34 -24.5 -58t-57.5 -24h-207q-48 0 -75 12t-50 62l-455 997q-8 16 -18 16t-10 -16v-1030q0 -17 -11.5 -29t-27.5 -12h-174q-17 0 -29 12t-12 29v1399q0 34 24 58t58 24h221q38 0 56 -16t34 -50l477 -1053q7 -16 16 -16q11 0 11 19v1077q0 39 39 39h176
q39 0 39 -39v-1401z" />
    <glyph glyph-name="O" unicode="O" horiz-adv-x="1393" 
d="M1280 623q0 -312 -152.5 -475.5t-431.5 -163.5q-278 0 -430.5 163.5t-152.5 475.5v276q0 324 158 481.5t425 157.5q279 0 431.5 -164t152.5 -475v-276zM993 623v276q0 200 -72 295.5t-225 95.5q-152 0 -224.5 -95.5t-72.5 -295.5v-276q0 -201 72.5 -296.5t224.5 -95.5
q153 0 225 95.5t72 296.5z" />
    <glyph glyph-name="P" unicode="P" horiz-adv-x="1282" 
d="M1210 1047q0 -157 -68 -264t-200.5 -161.5t-320.5 -54.5q-56 0 -183 8v-534q0 -17 -11 -29t-28 -12h-204q-17 0 -29 12t-12 29v1409q0 33 23.5 48.5t164 27.5t279.5 12q287 0 438 -119.5t151 -353.5v-18zM928 1047v18q0 124 -73 181t-234 57q-98 0 -183 -9v-487
q115 -6 183 -6q158 0 232.5 58.5t74.5 187.5z" />
    <glyph glyph-name="Q" unicode="Q" horiz-adv-x="1413" 
d="M1290 623q0 -268 -114.5 -429t-333.5 -200v-43q0 -66 61 -66h199q49 0 49 -32v-127q0 -20 -20.5 -33.5t-98.5 -23t-129 -9.5q-332 0 -332 287v47q-219 39 -333.5 200t-114.5 429v276q0 324 158 481.5t426 157.5q278 0 430.5 -164t152.5 -475v-276zM1004 623v276
q0 202 -73 296.5t-224 94.5q-153 0 -225 -95.5t-72 -295.5v-276q0 -201 72 -296.5t225 -95.5q152 0 224.5 95.5t72.5 296.5z" />
    <glyph glyph-name="R" unicode="R" horiz-adv-x="1337" 
d="M934 639l321 -598q5 -6 5 -16q0 -25 -25 -25h-250q-14 0 -21 9t-53 92l-262 487h-28q-56 0 -183 8v-555q0 -17 -11 -29t-28 -12h-204q-17 0 -29 12t-12 29v1409q0 33 23.5 48.5t164 27.5t279.5 12q284 0 436.5 -117.5t152.5 -345.5v-18q0 -308 -276 -418zM928 1057v18
q0 114 -76 166.5t-231 52.5q-98 0 -183 -8v-461q115 -6 183 -6q169 0 238 55t69 183z" />
    <glyph glyph-name="S" unicode="S" horiz-adv-x="1167" 
d="M995 1274q-225 20 -403 20q-215 0 -215 -145q0 -59 41.5 -97t96.5 -69l276 -154q147 -81 215.5 -177.5t68.5 -239.5q0 -127 -61.5 -225.5t-182 -150.5t-294.5 -52q-142 0 -259 17t-130 31t-13 29v148q0 16 11.5 27.5t27.5 11.5h4q58 -7 180 -14t183 -7q123 0 180 42
t57 143q0 65 -41 105t-94 72l-309 185q-125 74 -183.5 161t-58.5 214q0 389 512 389q109 0 249.5 -15.5t160.5 -27.5t20 -33v-151q0 -37 -35 -37h-4z" />
    <glyph glyph-name="T" unicode="T" horiz-adv-x="1186" 
d="M1135 1321q0 -37 -41 -37h-359v-1243q0 -17 -12 -29t-29 -12h-202q-17 0 -29 12t-12 29v1243h-359q-41 0 -41 37v162q0 16 12 27.5t29 11.5h1002q17 0 29 -11.5t12 -27.5v-162z" />
    <glyph glyph-name="U" unicode="U" horiz-adv-x="1413" 
d="M1270 563q0 -579 -563 -579q-564 0 -564 579v920q0 16 12 27.5t29 11.5h203q17 0 29 -11.5t12 -27.5v-920q0 -183 59.5 -263.5t219.5 -80.5q150 0 214 73.5t64 270.5v920q0 16 12 27.5t29 11.5h203q17 0 29 -11.5t12 -27.5v-920z" />
    <glyph glyph-name="V" unicode="V" horiz-adv-x="1343" 
d="M1257 1522q37 0 37 -35q0 -3 -2 -10l-336 -1284q-53 -209 -284 -209q-230 0 -285 209l-338 1294q0 35 37 35h217q31 0 39 -35l297 -1231q8 -33 33 -33t33 33l296 1231q8 35 39 35h217z" />
    <glyph glyph-name="W" unicode="W" horiz-adv-x="1765" 
d="M1716 1493v-6l-192 -1337q-13 -88 -54 -127t-131 -39h-110q-130 0 -164 139l-168 700q-5 23 -12 23q-10 0 -15 -23l-163 -680q-19 -81 -57 -120t-111 -39h-111q-89 0 -130.5 38.5t-53.5 127.5l-193 1337v6q0 29 35 29h217q30 0 35 -37l147 -1223q4 -31 11 -31q4 0 12 31
l176 719q23 92 129 92h141q107 0 129 -92l177 -719q6 -31 12 -31t10 31l148 1223q3 37 34 37h217q35 0 35 -29z" />
    <glyph glyph-name="X" unicode="X" horiz-adv-x="1331" 
d="M829 762l451 -721q4 -6 4 -16q0 -25 -33 -25h-241q-18 0 -31 12.5t-108 166.5l-216 345l-177 -303q-105 -180 -111 -190.5t-18.5 -20.5t-29.5 -10h-223q-33 0 -33 27q0 7 5 14l436 727l-449 715q-4 8 -4 12q0 27 33 27h242q19 0 33 -14.5t114 -175.5l205 -326l176 304
q102 176 106.5 183.5t18.5 18t29 10.5h223q33 0 33 -27q0 -5 -4 -12z" />
    <glyph glyph-name="Y" unicode="Y" horiz-adv-x="1260" 
d="M485 614q-72 29 -125 150l-309 711q-4 12 -4 16q0 31 33 31h227q27 0 39 -33l176 -437q78 -193 87 -203.5t18 -10.5q12 0 21 12t93 221l168 418q13 33 39 33h226q34 0 34 -31q0 -7 -4 -16l-311 -711q-52 -121 -125 -150v-573q0 -17 -11 -29t-28 -12h-205q-16 0 -27.5 12
t-11.5 29v573z" />
    <glyph glyph-name="Z" unicode="Z" horiz-adv-x="1204" 
d="M1122 41q0 -17 -12 -29t-29 -12h-895q-104 0 -104 76v112q0 38 27 78l649 973q6 9 6 18q0 17 -21 17h-569q-39 0 -39 37v172q0 39 39 39h825q50 0 79.5 -21t29.5 -57v-119q0 -41 -29 -84l-639 -956q-8 -11 -8 -23t19 -12h630q41 0 41 -37v-172z" />
    <glyph glyph-name="a" unicode="a" horiz-adv-x="1122" 
d="M989 41q0 -17 -12 -29t-29 -12h-174q-17 0 -29 12t-12 29v33q-148 -90 -289 -90q-171 0 -262.5 86t-91.5 256v8q0 179 119 266.5t381 87.5h129v90q0 96 -42.5 131t-137.5 35q-93 0 -178 -5l-156 -11h-10q-37 0 -37 35v131q0 21 15.5 33.5t133 27t232.5 14.5
q450 0 450 -391v-737zM719 256v252h-129q-119 0 -173.5 -35t-54.5 -139v-8q0 -70 31.5 -98.5t116.5 -28.5q103 0 209 57z" />
    <glyph glyph-name="b" unicode="b" horiz-adv-x="1182" 
d="M1090 498q0 -245 -123.5 -379.5t-366.5 -134.5q-138 0 -280.5 25t-164.5 39.5t-22 43.5v1426q0 16 12 28.5t29 12.5h188q17 0 29 -12.5t12 -28.5v-363q108 14 197 14q238 0 364 -132.5t126 -381.5v-157zM819 498v157q0 156 -53.5 224.5t-165.5 68.5q-91 0 -197 -14v-715
q75 -14 197 -14q112 0 165.5 68.5t53.5 224.5z" />
    <glyph glyph-name="c" unicode="c" horiz-adv-x="958" 
d="M866 63q0 -29 -13.5 -40.5t-93 -25t-200.5 -13.5q-214 0 -340.5 131t-126.5 366v191q0 235 126.5 366t340.5 131q124 0 202.5 -14t91.5 -25t13 -40v-134q0 -30 -37 -30h-6q-114 14 -264 14q-197 0 -197 -268v-191q0 -268 197 -268q95 0 151 4l113 10h6q37 0 37 -30v-134z
" />
    <glyph glyph-name="d" unicode="d" horiz-adv-x="1182" 
d="M1049 92q0 -29 -22 -43.5t-164.5 -39.5t-280.5 -25q-239 0 -364.5 132.5t-125.5 381.5v157q0 249 125.5 381.5t364.5 132.5q89 0 196 -14v363q0 16 12 28.5t29 12.5h189q16 0 28.5 -12.5t12.5 -28.5v-1426zM778 219v715q-105 14 -196 14q-112 0 -166 -68.5t-54 -224.5
v-157q0 -156 54 -224.5t166 -68.5q122 0 196 14z" />
    <glyph glyph-name="e" unicode="e" horiz-adv-x="1176" 
d="M1077 535q0 -52 -41 -52h-667v-6q0 -108 56 -184t189 -76q99 0 197 7l180 14h6q37 0 37 -31v-135q0 -40 -20 -47.5t-129.5 -24t-290.5 -16.5q-213 0 -354.5 132t-141.5 382v151q0 243 130.5 381.5t361.5 138.5q227 0 357 -141t130 -379v-114zM805 676v8q0 117 -59 184.5
t-156 67.5q-99 0 -159 -67.5t-60 -184.5v-8h434z" />
    <glyph glyph-name="f" unicode="f" horiz-adv-x="809" 
d="M768 1413q0 -35 -31 -35h-92q-75 0 -98 -23.5t-23 -99.5v-100h197q17 0 29 -12t12 -29v-123q0 -16 -12 -27.5t-29 -11.5h-197v-909q0 -17 -12 -30t-29 -13h-186q-17 0 -30 13t-13 30v909q-183 29 -192.5 31t-20 11.5t-10.5 25.5v94q0 17 12 29t29 12h182v100
q0 169 80 248.5t274 79.5q29 0 94.5 -10t65.5 -39v-121z" />
    <glyph glyph-name="g" unicode="g" horiz-adv-x="1196" 
d="M1139 1014q0 -28 -10.5 -34.5t-90.5 -37.5q52 -71 52 -164v-14q0 -373 -486 -373q-134 0 -223 35q-35 -23 -35 -53q0 -51 53 -64l258 -61q175 -41 263.5 -72.5t142 -91.5t53.5 -164v-14q0 -322 -502 -322q-245 0 -376.5 88.5t-131.5 251.5v19q0 128 105 225
q-92 72 -92 188v2q0 107 82 166q-84 85 -84 240v14q0 177 125 277t362 100h479q23 0 39.5 -16t16.5 -39v-86zM823 758v16q0 93 -54 133.5t-165 40.5q-221 0 -221 -174v-16q0 -162 221 -162q114 0 166.5 36.5t52.5 125.5zM846 -94v14q0 45 -62 70t-362 96q-51 -65 -51 -143
v-19q0 -75 59 -105t184 -30q117 0 174.5 22t57.5 95z" />
    <glyph glyph-name="h" unicode="h" horiz-adv-x="1212" 
d="M1079 43q0 -17 -12 -30t-29 -13h-188q-17 0 -29 13t-12 30v674q0 135 -32 179t-136 44t-238 -70v-827q0 -17 -12 -30t-29 -13h-188q-16 0 -28.5 13t-12.5 30v1475q0 16 12 28.5t29 12.5h188q17 0 29 -12.5t12 -28.5v-424q121 75 310 75q366 0 366 -452v-674z" />
    <glyph glyph-name="i" unicode="i" horiz-adv-x="549" 
d="M416 1350q0 -17 -12 -29t-29 -12h-199q-17 0 -30 12t-13 29v180q0 17 13 29t30 12h199q17 0 29 -12t12 -29v-180zM410 43q0 -17 -12.5 -30t-28.5 -13h-189q-16 0 -28.5 13t-12.5 30v1071q0 17 12 29t29 12h189q16 0 28.5 -12t12.5 -29v-1071z" />
    <glyph glyph-name="j" unicode="j" horiz-adv-x="549" 
d="M416 1350q0 -17 -13 -29t-30 -12h-197q-17 0 -29 12t-12 29v180q0 17 12 29t29 12h197q17 0 30 -12.5t13 -28.5v-180zM410 -86q0 -167 -70 -245.5t-234 -78.5q-46 0 -101.5 7.5t-64 18.5t-8.5 24v133q0 32 43 32h93q46 0 58.5 22t12.5 87v1200q0 17 12 29t29 12h189
q16 0 28.5 -12t12.5 -29v-1200z" />
    <glyph glyph-name="k" unicode="k" horiz-adv-x="1124" 
d="M641 606l274 -372q143 -195 145.5 -199.5t2.5 -9.5q0 -25 -29 -25h-250q-34 0 -69 53l-312 455v-465q0 -17 -12 -30t-29 -13h-188q-16 0 -28.5 13t-12.5 30v1475q0 16 12 28.5t29 12.5h188q17 0 29 -12.5t12 -28.5v-854l221 294q130 173 135.5 179.5t18 12t23.5 5.5h229
q31 0 31 -22q0 -11 -5 -16z" />
    <glyph glyph-name="l" unicode="l" horiz-adv-x="557" 
d="M414 43q0 -17 -11.5 -30t-27.5 -13h-191q-16 0 -28.5 13t-12.5 30v1475q0 16 12 28.5t29 12.5h191q16 0 27.5 -12t11.5 -29v-1475z" />
    <glyph glyph-name="m" unicode="m" horiz-adv-x="1737" 
d="M1604 43q0 -17 -12.5 -30t-28.5 -13h-189q-16 0 -28.5 13t-12.5 30v696q0 115 -28.5 157t-118.5 42q-93 0 -191 -51q9 -60 9 -148v-696q0 -17 -12.5 -30t-28.5 -13h-189q-16 0 -28.5 13t-12.5 30v696q0 119 -28 159t-113 40q-63 0 -189 -68v-827q0 -17 -12 -30t-29 -13
h-188q-16 0 -28.5 13t-12.5 30v1071q0 17 12 29t29 12h178q17 0 29 -12t12 -29v-43q149 98 293 98q164 0 240 -92q162 92 338 92q172 0 256 -99.5t84 -330.5v-696z" />
    <glyph glyph-name="n" unicode="n" horiz-adv-x="1212" 
d="M1079 43q0 -17 -12 -30t-29 -13h-188q-17 0 -29 13t-12 30v668q0 140 -30 184.5t-144 44.5q-92 0 -232 -74v-823q0 -17 -12 -30t-29 -13h-188q-16 0 -28.5 13t-12.5 30v1071q0 17 12 29t29 12h178q17 0 29 -12t12 -29v-43q81 52 152 75t180 23q180 0 267 -102.5
t87 -355.5v-668z" />
    <glyph glyph-name="o" unicode="o" horiz-adv-x="1176" 
d="M1077 494q0 -233 -130.5 -371.5t-358.5 -138.5q-229 0 -359.5 138.5t-130.5 371.5v165q0 233 130.5 371.5t359.5 138.5q228 0 358.5 -138.5t130.5 -371.5v-165zM807 494v165q0 131 -57.5 204t-161.5 73t-161.5 -73t-57.5 -204v-165q0 -129 56.5 -203t162.5 -74
q104 0 161.5 73t57.5 204z" />
    <glyph glyph-name="p" unicode="p" horiz-adv-x="1182" 
d="M1090 498q0 -245 -123.5 -379.5t-366.5 -134.5q-89 0 -197 14v-363q0 -16 -12 -28.5t-29 -12.5h-188q-17 0 -29 12.5t-12 28.5v1426q0 29 22 43.5t164 39.5t281 25q238 0 364 -132.5t126 -381.5v-157zM819 498v157q0 156 -53.5 224.5t-165.5 68.5q-122 0 -197 -14v-715
q106 -14 197 -14q112 0 165.5 68.5t53.5 224.5z" />
    <glyph glyph-name="q" unicode="q" horiz-adv-x="1182" 
d="M1049 -365q0 -16 -12.5 -28.5t-28.5 -12.5h-189q-17 0 -29 12.5t-12 28.5v363q-107 -14 -196 -14q-239 0 -364.5 132.5t-125.5 381.5v157q0 249 125.5 381.5t364.5 132.5q138 0 280.5 -25t164.5 -39.5t22 -43.5v-1426zM778 219v715q-74 14 -196 14q-112 0 -166 -68.5
t-54 -224.5v-157q0 -156 54 -224.5t166 -68.5q91 0 196 14z" />
    <glyph glyph-name="r" unicode="r" horiz-adv-x="768" 
d="M727 981q0 -17 -12 -29t-29 -12q-144 0 -283 -74v-823q0 -17 -12 -30t-29 -13h-188q-16 0 -28.5 13t-12.5 30v1071q0 17 12 29t29 12h178q17 0 29 -12t12 -29v-43q128 98 293 98q17 0 29 -12t12 -29v-147z" />
    <glyph glyph-name="s" unicode="s" horiz-adv-x="1001" 
d="M842 924q-172 24 -338 24q-76 0 -109 -19.5t-33 -66.5q0 -34 40 -58l311 -190q96 -58 146 -128t50 -183q0 -144 -106.5 -231.5t-294.5 -87.5q-120 0 -244 17t-143 32t-19 39v123q0 12 10.5 22t24.5 10h8q181 -22 344 -22q71 0 108.5 19.5t37.5 78.5q0 48 -64 88l-307 189
q-80 49 -126 123.5t-46 158.5q0 307 389 307q142 0 256.5 -19.5t130 -31.5t15.5 -37v-118q0 -39 -33 -39h-8z" />
    <glyph glyph-name="t" unicode="t" horiz-adv-x="829" 
d="M778 35q0 -15 -9.5 -25.5t-70.5 -18t-98 -7.5q-207 0 -266.5 74.5t-59.5 250.5v643q-193 29 -202 31t-20 12.5t-11 26.5v92q0 17 12 29t29 12h192v168q0 17 12 27.5t71 20.5t149 26h8q33 0 33 -31v-211h184q17 0 29 -12t12 -29v-121q0 -17 -12 -29t-29 -12h-184v-643
q0 -68 8.5 -91t71.5 -23h108q43 0 43 -31v-129z" />
    <glyph glyph-name="u" unicode="u" horiz-adv-x="1212" 
d="M1079 41q0 -17 -12 -29t-29 -12h-188q-17 0 -29 12t-12 29v47q-151 -102 -322 -102q-177 0 -265.5 100t-88.5 358v668q0 17 12.5 30t28.5 13h188q17 0 29 -13t12 -30v-668q0 -131 34 -182t141 -51q80 0 231 82v819q0 17 12 30t29 13h188q17 0 29 -13t12 -30v-1071z" />
    <glyph glyph-name="v" unicode="v" horiz-adv-x="1128" 
d="M1047 1155q32 0 32 -33q0 -7 -2 -14l-258 -932q-52 -192 -256 -192q-200 0 -254 192l-258 932q-2 4 -2 14q0 33 33 33h205q31 0 41 -41l196 -858q11 -51 39 -51q27 0 39 51l197 858q9 41 43 41h205z" />
    <glyph glyph-name="w" unicode="w" horiz-adv-x="1677" 
d="M1624 1114v-6l-186 -942q-22 -109 -62 -140.5t-121 -31.5h-55q-41 0 -72.5 9.5t-55 29t-40 49t-25.5 67.5l-164 634q-2 8 -5 8q-4 0 -6 -8l-164 -634q-12 -51 -36.5 -85.5t-63 -52t-93.5 -17.5h-55q-82 0 -121.5 32.5t-60.5 139.5l-187 942v6q0 17 12 29t29 12h199
q31 0 37 -37l129 -866q3 -29 10 -29q9 0 14 29l115 466q61 243 71 267t31.5 33.5t67.5 9.5h143q31 0 49.5 -3.5t31 -14t21 -29.5t40.5 -149l143 -580q6 -29 14 -29q6 0 11 29l129 866q4 37 36 37h199q17 0 29 -12t12 -29z" />
    <glyph glyph-name="x" unicode="x" horiz-adv-x="1141" 
d="M723 598l237 -354q136 -203 138 -207t2 -10q0 -27 -31 -27h-233q-19 0 -30 9t-87 126l-172 266l-167 -272q-68 -111 -79.5 -120t-30.5 -9h-211q-24 0 -24 23q0 4 1 8t44 70l328 495l-221 330q-126 188 -128 192t-2 8q0 11 10 20t23 9h234q17 0 28 -10t78 -113l154 -237
l181 301q21 35 31 47t35 12h211q25 0 25 -22q0 -5 -1.5 -9t-40.5 -65z" />
    <glyph glyph-name="y" unicode="y" horiz-adv-x="1147" 
d="M588 240l221 880q8 35 41 35h209q15 0 26 -10.5t11 -24.5q0 -5 -2 -12l-342 -1196q-59 -207 -151.5 -264.5t-266.5 -57.5q-68 0 -139 11t-96 21.5t-25 29.5v131q0 37 41 37h4l231 -13q69 0 107 27t71 166h-30q-76 0 -116 46t-63 124l-268 938q-2 6 -2 14q0 33 39 33h207
q30 0 39 -37l207 -833q10 -45 28 -45h19z" />
    <glyph glyph-name="z" unicode="z" horiz-adv-x="1004" 
d="M922 41q0 -17 -12 -29t-29 -12h-717q-34 0 -58 24t-24 58v88q0 29 27 66l495 682q6 9 6 12q0 6 -12 6h-463q-37 0 -37 33v145q0 17 12 29t29 12h697q33 0 57.5 -25t24.5 -59v-117q0 -33 -11 -47l-481 -659q0 -8 12 -8h447q37 0 37 -33v-166z" />
    <glyph glyph-name="registered" unicode="&#xae;" horiz-adv-x="1225" 
d="M612 1554q233 0 399.5 -165.5t166.5 -397.5t-166.5 -397.5t-399.5 -165.5q-232 0 -397.5 165.5t-165.5 397.5q0 234 165 398.5t398 164.5zM612 524q193 0 331 137.5t138 329.5q0 193 -138 331t-331 138q-192 0 -329.5 -138t-137.5 -331q0 -192 137.5 -329.5t329.5 -137.5
zM733 944l112 -191q40 -68 40 -77q0 -23 -23 -23h-104q-9 0 -14 5t-50 82l-102 171q-5 11 -21 11h-63v-242q0 -27 -25 -27h-94q-24 0 -24 27v608q0 41 30 52.5t187 11.5q145 0 211.5 -52.5t66.5 -162.5v-13q0 -136 -127 -180zM723 1124v13q0 49 -30 70.5t-101 21.5h-88v-197
l88 -2q131 0 131 94z" />
    <glyph glyph-name="guillemotleft" unicode="&#xab;" horiz-adv-x="1411" 
d="M958 578l373 -408q4 -5 4 -12q0 -23 -30 -23h-195q-30 0 -42 9.5t-96 101.5l-173 190q-88 97 -93.5 108t-5.5 34q0 16 4 28.5t62 76.5l247 271q48 53 60 59.5t37 6.5h195q30 0 30 -23q0 -4 -1 -7t-45 -51zM371 578l372 -408q5 -5 5 -12q0 -23 -31 -23h-195q-30 0 -42 9.5
t-96 101.5l-173 190q-88 97 -93 108t-5 34q0 16 3.5 28.5t61.5 76.5l247 271q48 53 60 59.5t37 6.5h195q31 0 31 -23q0 -4 -1.5 -7t-45.5 -51z" />
    <glyph glyph-name="guillemotright" unicode="&#xbb;" horiz-adv-x="1411" 
d="M1071 578l-372 407q-5 5 -5 12q0 23 31 23h195q30 0 42 -9.5t96 -101.5l172 -190q89 -97 94 -108t5 -33q0 -17 -4 -29.5t-61 -75.5l-247 -272q-49 -53 -60.5 -59.5t-36.5 -6.5h-195q-31 0 -31 23q0 4 1.5 7t44.5 51zM483 578l-372 407q-5 5 -5 12q0 23 31 23h195
q30 0 42 -9.5t96 -101.5l173 -190q88 -97 93 -108t5 -33q0 -17 -3.5 -29.5t-61.5 -75.5l-247 -272q-48 -53 -60 -59.5t-37 -6.5h-195q-31 0 -31 23q0 4 1.5 7t45.5 51z" />
    <glyph glyph-name="ellipsis" unicode="&#x2026;" horiz-adv-x="1440" 
d="M1331 41q0 -17 -12 -29t-29 -12h-184q-17 0 -29 12t-12 29v231q0 17 12 28t29 11h184q17 0 29 -11t12 -28v-231zM854 41q0 -17 -12 -29t-29 -12h-184q-17 0 -29 12t-12 29v231q0 17 12 28t29 11h184q17 0 29 -11t12 -28v-231zM377 41q0 -17 -12 -29t-29 -12h-184
q-17 0 -29 12t-12 29v231q0 17 11.5 28t29.5 11h184q17 0 29 -11t12 -28v-231z" />
    <glyph glyph-name="endash" unicode="&#x2013;" horiz-adv-x="834" 
d="M764 524q0 -37 -39 -37h-616q-39 0 -39 37v129q0 39 39 39h616q39 0 39 -39v-129z" />
    <glyph glyph-name="emdash" unicode="&#x2014;" horiz-adv-x="1100" 
d="M1032 524q0 -37 -41 -37h-882q-39 0 -39 37v129q0 39 39 39h882q17 0 29 -11t12 -28v-129z" />
    <glyph glyph-name="afii10023" unicode="&#xa8;" horiz-adv-x="1180" 
d="M918 1688q0 -17 -13 -29t-31 -12h-147q-17 0 -30 12t-13 29v180q0 16 13 28.5t30 12.5h147q18 0 31 -12.5t13 -28.5v-180zM508 1688q0 -17 -13 -29t-30 -12h-148q-17 0 -30 12t-13 29v180q0 16 13 28.5t30 12.5h148q17 0 30 -12.5t13 -28.5v-180zM1057 55
q0 -25 -12.5 -33.5t-128.5 -23t-289 -14.5q-260 0 -366.5 103.5t-106.5 315.5v715q0 213 106.5 316.5t366.5 103.5q144 0 276.5 -14t143 -25t10.5 -33v-131q0 -17 -12 -29t-29 -12h-418q-93 0 -127.5 -39t-34.5 -137v-221h555q17 0 29 -12t12 -29v-147q0 -17 -12 -29
t-29 -12h-555v-265q0 -98 34.5 -137t127.5 -39h418q17 0 29 -12t12 -29v-131z" />
    <glyph glyph-name="afii10023" unicode="&#x401;" horiz-adv-x="1180" 
d="M918 1688q0 -17 -13 -29t-31 -12h-147q-17 0 -30 12t-13 29v180q0 16 13 28.5t30 12.5h147q18 0 31 -12.5t13 -28.5v-180zM508 1688q0 -17 -13 -29t-30 -12h-148q-17 0 -30 12t-13 29v180q0 16 13 28.5t30 12.5h148q17 0 30 -12.5t13 -28.5v-180zM1057 55
q0 -25 -12.5 -33.5t-128.5 -23t-289 -14.5q-260 0 -366.5 103.5t-106.5 315.5v715q0 213 106.5 316.5t366.5 103.5q144 0 276.5 -14t143 -25t10.5 -33v-131q0 -17 -12 -29t-29 -12h-418q-93 0 -127.5 -39t-34.5 -137v-221h555q17 0 29 -12t12 -29v-147q0 -17 -12 -29
t-29 -12h-555v-265q0 -98 34.5 -137t127.5 -39h418q17 0 29 -12t12 -29v-131z" />
    <glyph glyph-name="afii10017" unicode="&#xc0;" horiz-adv-x="1323" 
d="M426 424l-61 -250q-34 -142 -36.5 -149.5t-13 -16t-22.5 -8.5h-217q-37 0 -37 35q0 2 2 10l336 1284q54 209 285 209q230 0 284 -209l338 -1294q0 -35 -37 -35h-217q-31 0 -39 34l-94 390h-471zM842 657l-105 433q-47 192 -53 200t-22 8q-24 0 -29 -17l-152 -624h361z
" />
    <glyph glyph-name="afii10017" unicode="&#x410;" horiz-adv-x="1323" 
d="M426 424l-61 -250q-34 -142 -36.5 -149.5t-13 -16t-22.5 -8.5h-217q-37 0 -37 35q0 2 2 10l336 1284q54 209 285 209q230 0 284 -209l338 -1294q0 -35 -37 -35h-217q-31 0 -39 34l-94 390h-471zM842 657l-105 433q-47 192 -53 200t-22 8q-24 0 -29 -17l-152 -624h361z
" />
    <glyph glyph-name="afii10018" unicode="&#xc1;" horiz-adv-x="1313" 
d="M1085 1286h-647v-323q53 4 183 4q287 0 438 -119.5t151 -353.5v-37q0 -156 -67 -261.5t-199.5 -158.5t-322.5 -53q-140 0 -281 12t-163.5 27.5t-22.5 48.5v1411q0 17 12 29t29 12h890q18 0 29.5 -11.5t11.5 -27.5v-162q0 -37 -41 -37zM438 723v-496q85 -8 183 -8
q161 0 234 57t73 181v37q0 126 -75 181.5t-232 55.5q-98 0 -183 -8z" />
    <glyph glyph-name="afii10018" unicode="&#x411;" horiz-adv-x="1313" 
d="M1085 1286h-647v-323q53 4 183 4q287 0 438 -119.5t151 -353.5v-37q0 -156 -67 -261.5t-199.5 -158.5t-322.5 -53q-140 0 -281 12t-163.5 27.5t-22.5 48.5v1411q0 17 12 29t29 12h890q18 0 29.5 -11.5t11.5 -27.5v-162q0 -37 -41 -37zM438 723v-496q85 -8 183 -8
q161 0 234 57t73 181v37q0 126 -75 181.5t-232 55.5q-98 0 -183 -8z" />
    <glyph glyph-name="afii10019" unicode="&#xc2;" horiz-adv-x="1331" 
d="M1229 426q0 -223 -153 -332.5t-470 -109.5q-134 0 -254.5 9.5t-159 32t-38.5 91.5v1290q0 61 28.5 87t164.5 35t241 9q631 0 631 -416v-41q0 -105 -49 -187.5t-140 -121.5q199 -86 199 -311v-35zM942 1077v29q0 108 -79 152.5t-275 44.5q-63 0 -150 -5v-415h260
q244 0 244 194zM950 430v27q0 103 -64 160t-188 57h-260v-451l168 -4q182 0 263 46.5t81 164.5z" />
    <glyph glyph-name="afii10019" unicode="&#x412;" horiz-adv-x="1331" 
d="M1229 426q0 -223 -153 -332.5t-470 -109.5q-134 0 -254.5 9.5t-159 32t-38.5 91.5v1290q0 61 28.5 87t164.5 35t241 9q631 0 631 -416v-41q0 -105 -49 -187.5t-140 -121.5q199 -86 199 -311v-35zM942 1077v29q0 108 -79 152.5t-275 44.5q-63 0 -150 -5v-415h260
q244 0 244 194zM950 430v27q0 103 -64 160t-188 57h-260v-451l168 -4q182 0 263 46.5t81 164.5z" />
    <glyph glyph-name="afii10020" unicode="&#xc3;" horiz-adv-x="1180" 
d="M436 1118v-1077q0 -17 -12 -29t-29 -12h-200q-17 0 -29 12t-12 29v1077q0 213 106.5 316.5t366.5 103.5q144 0 276.5 -14t143 -25t10.5 -33v-131q0 -17 -12 -29t-29 -12h-418q-93 0 -127.5 -39t-34.5 -137z" />
    <glyph glyph-name="afii10020" unicode="&#x413;" horiz-adv-x="1180" 
d="M436 1118v-1077q0 -17 -12 -29t-29 -12h-200q-17 0 -29 12t-12 29v1077q0 213 106.5 316.5t366.5 103.5q144 0 276.5 -14t143 -25t10.5 -33v-131q0 -17 -12 -29t-29 -12h-418q-93 0 -127.5 -39t-34.5 -137z" />
    <glyph glyph-name="afii10021" unicode="&#xc4;" horiz-adv-x="1583" 
d="M72 254h151l281 1075q54 209 284 209q231 0 285 -209l279 -1075h159q17 0 29 -12t12 -29v-455q0 -17 -12 -29t-29 -12h-202q-17 0 -29 12.5t-12 28.5v242h-953v-242q0 -16 -12 -28.5t-29 -12.5h-202q-17 0 -29 12.5t-12 28.5v455q0 17 12 29t29 12zM756 1266l-244 -1012
h551l-242 1012q-8 32 -33 32q-24 0 -32 -32z" />
    <glyph glyph-name="afii10021" unicode="&#x414;" horiz-adv-x="1583" 
d="M72 254h151l281 1075q54 209 284 209q231 0 285 -209l279 -1075h159q17 0 29 -12t12 -29v-455q0 -17 -12 -29t-29 -12h-202q-17 0 -29 12.5t-12 28.5v242h-953v-242q0 -16 -12 -28.5t-29 -12.5h-202q-17 0 -29 12.5t-12 28.5v455q0 17 12 29t29 12zM756 1266l-244 -1012
h551l-242 1012q-8 32 -33 32q-24 0 -32 -32z" />
    <glyph glyph-name="afii10022" unicode="&#xc5;" horiz-adv-x="1180" 
d="M1057 55q0 -25 -12.5 -33.5t-128.5 -23t-289 -14.5q-260 0 -366.5 103.5t-106.5 315.5v715q0 213 106.5 316.5t366.5 103.5q144 0 276.5 -14t143 -25t10.5 -33v-131q0 -17 -12 -29t-29 -12h-418q-93 0 -127.5 -39t-34.5 -137v-221h555q17 0 29 -12t12 -29v-147
q0 -17 -12 -29t-29 -12h-555v-265q0 -98 34.5 -137t127.5 -39h418q17 0 29 -12t12 -29v-131z" />
    <glyph glyph-name="afii10022" unicode="&#x415;" horiz-adv-x="1180" 
d="M1057 55q0 -25 -12.5 -33.5t-128.5 -23t-289 -14.5q-260 0 -366.5 103.5t-106.5 315.5v715q0 213 106.5 316.5t366.5 103.5q144 0 276.5 -14t143 -25t10.5 -33v-131q0 -17 -12 -29t-29 -12h-418q-93 0 -127.5 -39t-34.5 -137v-221h555q17 0 29 -12t12 -29v-147
q0 -17 -12 -29t-29 -12h-555v-265q0 -98 34.5 -137t127.5 -39h418q17 0 29 -12t12 -29v-131z" />
    <glyph glyph-name="afii10024" unicode="&#xc6;" horiz-adv-x="2042" 
d="M879 829v652q0 16 11.5 27.5t29.5 11.5h202q17 0 29 -11.5t12 -27.5v-652l502 674q12 17 47 17h234q39 0 39 -25q0 -14 -15 -33l-524 -678l528 -741q11 -17 11 -25q0 -18 -31 -18h-275q-32 0 -47 23l-469 698v-680q0 -17 -12 -29t-29 -12h-202q-17 0 -29 12t-12 29v680
l-469 -698q-14 -23 -48 -23h-274q-31 0 -31 18q0 11 11 25l528 741l-524 678q-15 18 -15 33q0 25 39 25h234q35 0 47 -17z" />
    <glyph glyph-name="afii10024" unicode="&#x416;" horiz-adv-x="2042" 
d="M879 829v652q0 16 11.5 27.5t29.5 11.5h202q17 0 29 -11.5t12 -27.5v-652l502 674q12 17 47 17h234q39 0 39 -25q0 -14 -15 -33l-524 -678l528 -741q11 -17 11 -25q0 -18 -31 -18h-275q-32 0 -47 23l-469 698v-680q0 -17 -12 -29t-29 -12h-202q-17 0 -29 12t-12 29v680
l-469 -698q-14 -23 -48 -23h-274q-31 0 -31 18q0 11 11 25l528 741l-524 678q-15 18 -15 33q0 25 39 25h234q35 0 47 -17z" />
    <glyph glyph-name="afii10025" unicode="&#xc7;" horiz-adv-x="1202" 
d="M1069 426q0 -211 -137.5 -326.5t-376.5 -115.5q-138 0 -266.5 24t-147 35t-18.5 31v127q0 37 37 37h4q283 -29 391 -29q119 0 174 51.5t55 165.5v43q0 207 -188 207h-363q-38 0 -38 39v129q0 39 38 39h363q95 0 141.5 46.5t46.5 153.5v33q0 197 -229 197q-72 0 -176 -9
l-215 -20h-4q-37 0 -37 37v127q0 18 17 30.5t150.5 36t264.5 23.5q251 0 382.5 -106.5t131.5 -315.5v-33q0 -207 -176 -303q84 -46 130 -129t46 -182v-43z" />
    <glyph glyph-name="afii10025" unicode="&#x417;" horiz-adv-x="1202" 
d="M1069 426q0 -211 -137.5 -326.5t-376.5 -115.5q-138 0 -266.5 24t-147 35t-18.5 31v127q0 37 37 37h4q283 -29 391 -29q119 0 174 51.5t55 165.5v43q0 207 -188 207h-363q-38 0 -38 39v129q0 39 38 39h363q95 0 141.5 46.5t46.5 153.5v33q0 197 -229 197q-72 0 -176 -9
l-215 -20h-4q-37 0 -37 37v127q0 18 17 30.5t150.5 36t264.5 23.5q251 0 382.5 -106.5t131.5 -315.5v-33q0 -207 -176 -303q84 -46 130 -129t46 -182v-43z" />
    <glyph glyph-name="afii10026" unicode="&#xc8;" horiz-adv-x="1458" 
d="M154 82v1401q0 39 39 39h176q39 0 39 -39v-1077q0 -19 10 -19t16 16l477 1053q16 34 34 50t56 16h222q33 0 57.5 -24.5t24.5 -57.5v-1399q0 -17 -12.5 -29t-28.5 -12h-174q-17 0 -28 12t-11 29v1030q0 16 -11 16q-10 0 -18 -16l-455 -997q-22 -50 -49.5 -62t-75.5 -12
h-206q-34 0 -58 24t-24 58z" />
    <glyph glyph-name="afii10026" unicode="&#x418;" horiz-adv-x="1458" 
d="M154 82v1401q0 39 39 39h176q39 0 39 -39v-1077q0 -19 10 -19t16 16l477 1053q16 34 34 50t56 16h222q33 0 57.5 -24.5t24.5 -57.5v-1399q0 -17 -12.5 -29t-28.5 -12h-174q-17 0 -28 12t-11 29v1030q0 16 -11 16q-10 0 -18 -16l-455 -997q-22 -50 -49.5 -62t-75.5 -12
h-206q-34 0 -58 24t-24 58z" />
    <glyph glyph-name="afii10027" unicode="&#xc9;" horiz-adv-x="1458" 
d="M1085 1948q21 0 21 -15l-2 -8q-31 -140 -124 -218.5t-239 -78.5q-145 0 -238 78.5t-124 218.5l-2 8q0 15 20 15h154q20 0 27 -25q35 -135 163 -135q129 0 164 135q6 25 27 25h153zM154 82v1401q0 39 39 39h176q39 0 39 -39v-1077q0 -19 10 -19t16 16l477 1053
q16 34 34 50t56 16h222q33 0 57.5 -24.5t24.5 -57.5v-1399q0 -17 -12.5 -29t-28.5 -12h-174q-17 0 -28 12t-11 29v1030q0 16 -11 16q-10 0 -18 -16l-455 -997q-22 -50 -49.5 -62t-75.5 -12h-206q-34 0 -58 24t-24 58z" />
    <glyph glyph-name="afii10027" unicode="&#x419;" horiz-adv-x="1458" 
d="M1085 1948q21 0 21 -15l-2 -8q-31 -140 -124 -218.5t-239 -78.5q-145 0 -238 78.5t-124 218.5l-2 8q0 15 20 15h154q20 0 27 -25q35 -135 163 -135q129 0 164 135q6 25 27 25h153zM154 82v1401q0 39 39 39h176q39 0 39 -39v-1077q0 -19 10 -19t16 16l477 1053
q16 34 34 50t56 16h222q33 0 57.5 -24.5t24.5 -57.5v-1399q0 -17 -12.5 -29t-28.5 -12h-174q-17 0 -28 12t-11 29v1030q0 16 -11 16q-10 0 -18 -16l-455 -997q-22 -50 -49.5 -62t-75.5 -12h-206q-34 0 -58 24t-24 58z" />
    <glyph glyph-name="afii10028" unicode="&#xca;" horiz-adv-x="1317" 
d="M721 784l528 -741q11 -17 11 -25q0 -18 -31 -18h-275q-32 0 -47 23l-469 698v-680q0 -17 -12 -29t-29 -12h-202q-17 0 -29 12t-12 29v1440q0 16 11.5 27.5t29.5 11.5h202q17 0 29 -11.5t12 -27.5v-652l502 674q12 17 47 17h234q39 0 39 -25q0 -14 -15 -33z" />
    <glyph glyph-name="afii10028" unicode="&#x41a;" horiz-adv-x="1317" 
d="M721 784l528 -741q11 -17 11 -25q0 -18 -31 -18h-275q-32 0 -47 23l-469 698v-680q0 -17 -12 -29t-29 -12h-202q-17 0 -29 12t-12 29v1440q0 16 11.5 27.5t29.5 11.5h202q17 0 29 -11.5t12 -27.5v-652l502 674q12 17 47 17h234q39 0 39 -25q0 -14 -15 -33z" />
    <glyph glyph-name="afii10029" unicode="&#xcb;" horiz-adv-x="1323" 
d="M991 35l-297 1231q-8 32 -32 32q-25 0 -33 -32l-297 -1231q-8 -35 -39 -35h-217q-37 0 -37 35q0 2 2 10l336 1284q54 209 285 209q230 0 284 -209l338 -1294q0 -35 -37 -35h-217q-30 0 -39 35z" />
    <glyph glyph-name="afii10029" unicode="&#x41b;" horiz-adv-x="1323" 
d="M991 35l-297 1231q-8 32 -32 32q-25 0 -33 -32l-297 -1231q-8 -35 -39 -35h-217q-37 0 -37 35q0 2 2 10l336 1284q54 209 285 209q230 0 284 -209l338 -1294q0 -35 -37 -35h-217q-30 0 -39 35z" />
    <glyph glyph-name="afii10030" unicode="&#xcc;" horiz-adv-x="1622" 
d="M1468 31q0 -31 -34 -31h-207q-13 0 -23 12.5t-10 28.5v952q0 21 -6 21q-4 0 -37 -66l-166 -330q-22 -43 -70 -43h-206q-47 0 -66 35l-151 298q-54 106 -58 106q-6 0 -6 -21v-952q0 -16 -10 -28.5t-23 -12.5h-207q-34 0 -34 31v1409q0 34 24 58t58 24h167q52 0 76 -49
l211 -427q103 -209 109 -219t12 -10q7 0 18 21l255 515q64 129 73.5 140.5t26 20t35.5 8.5h167q34 0 58 -24.5t24 -57.5v-1409z" />
    <glyph glyph-name="afii10030" unicode="&#x41c;" horiz-adv-x="1622" 
d="M1468 31q0 -31 -34 -31h-207q-13 0 -23 12.5t-10 28.5v952q0 21 -6 21q-4 0 -37 -66l-166 -330q-22 -43 -70 -43h-206q-47 0 -66 35l-151 298q-54 106 -58 106q-6 0 -6 -21v-952q0 -16 -10 -28.5t-23 -12.5h-207q-34 0 -34 31v1409q0 34 24 58t58 24h167q52 0 76 -49
l211 -427q103 -209 109 -219t12 -10q7 0 18 21l255 515q64 129 73.5 140.5t26 20t35.5 8.5h167q34 0 58 -24.5t24 -57.5v-1409z" />
    <glyph glyph-name="afii10031" unicode="&#xcd;" horiz-adv-x="1458" 
d="M1305 41q0 -17 -12.5 -29t-28.5 -12h-203q-17 0 -29 12t-12 29v627h-582v-627q0 -17 -12 -29t-29 -12h-202q-17 0 -29 12t-12 29v1442q0 16 11.5 27.5t29.5 11.5h202q17 0 29 -11.5t12 -27.5v-565h582v565q0 16 12 27.5t29 11.5h203q17 0 29 -11.5t12 -27.5v-1442z" />
    <glyph glyph-name="afii10031" unicode="&#x41d;" horiz-adv-x="1458" 
d="M1305 41q0 -17 -12.5 -29t-28.5 -12h-203q-17 0 -29 12t-12 29v627h-582v-627q0 -17 -12 -29t-29 -12h-202q-17 0 -29 12t-12 29v1442q0 16 11.5 27.5t29.5 11.5h202q17 0 29 -11.5t12 -27.5v-565h582v565q0 16 12 27.5t29 11.5h203q17 0 29 -11.5t12 -27.5v-1442z" />
    <glyph glyph-name="afii10032" unicode="&#xce;" horiz-adv-x="1393" 
d="M1280 623q0 -312 -152.5 -475.5t-431.5 -163.5q-278 0 -430.5 163.5t-152.5 475.5v276q0 324 158 481.5t425 157.5q279 0 431.5 -164t152.5 -475v-276zM993 623v276q0 200 -72 295.5t-225 95.5q-152 0 -224.5 -95.5t-72.5 -295.5v-276q0 -201 72.5 -296.5t224.5 -95.5
q153 0 225 95.5t72 296.5z" />
    <glyph glyph-name="afii10032" unicode="&#x41e;" horiz-adv-x="1393" 
d="M1280 623q0 -312 -152.5 -475.5t-431.5 -163.5q-278 0 -430.5 163.5t-152.5 475.5v276q0 324 158 481.5t425 157.5q279 0 431.5 -164t152.5 -475v-276zM993 623v276q0 200 -72 295.5t-225 95.5q-152 0 -224.5 -95.5t-72.5 -295.5v-276q0 -201 72.5 -296.5t224.5 -95.5
q153 0 225 95.5t72 296.5z" />
    <glyph glyph-name="afii10033" unicode="&#xcf;" horiz-adv-x="1458" 
d="M1305 1169v-1128q0 -17 -12.5 -29t-28.5 -12h-203q-17 0 -29 12t-12 29v1128q0 60 -18 80.5t-68 20.5h-410q-52 0 -69 -21.5t-17 -79.5v-1128q0 -17 -12 -29t-29 -12h-202q-17 0 -29 12t-12 29v1128q0 186 86.5 269.5t283.5 83.5h410q196 0 283.5 -82.5t87.5 -270.5z" />
    <glyph glyph-name="afii10033" unicode="&#x41f;" horiz-adv-x="1458" 
d="M1305 1169v-1128q0 -17 -12.5 -29t-28.5 -12h-203q-17 0 -29 12t-12 29v1128q0 60 -18 80.5t-68 20.5h-410q-52 0 -69 -21.5t-17 -79.5v-1128q0 -17 -12 -29t-29 -12h-202q-17 0 -29 12t-12 29v1128q0 186 86.5 269.5t283.5 83.5h410q196 0 283.5 -82.5t87.5 -270.5z" />
    <glyph glyph-name="afii10034" unicode="&#xd0;" horiz-adv-x="1282" 
d="M1210 1047q0 -157 -68 -264t-200.5 -161.5t-320.5 -54.5q-56 0 -183 8v-534q0 -17 -11 -29t-28 -12h-204q-17 0 -29 12t-12 29v1409q0 33 23.5 48.5t164 27.5t279.5 12q287 0 438 -119.5t151 -353.5v-18zM928 1047v18q0 124 -73 181t-234 57q-98 0 -183 -9v-487
q115 -6 183 -6q158 0 232.5 58.5t74.5 187.5z" />
    <glyph glyph-name="afii10034" unicode="&#x420;" horiz-adv-x="1282" 
d="M1210 1047q0 -157 -68 -264t-200.5 -161.5t-320.5 -54.5q-56 0 -183 8v-534q0 -17 -11 -29t-28 -12h-204q-17 0 -29 12t-12 29v1409q0 33 23.5 48.5t164 27.5t279.5 12q287 0 438 -119.5t151 -353.5v-18zM928 1047v18q0 124 -73 181t-234 57q-98 0 -183 -9v-487
q115 -6 183 -6q158 0 232.5 58.5t74.5 187.5z" />
    <glyph glyph-name="afii10035" unicode="&#xd1;" horiz-adv-x="1153" 
d="M1061 63q0 -32 -32.5 -43.5t-134.5 -23.5t-202 -12q-261 0 -420 159t-159 467v301q0 240 88 379.5t218 193.5t273 54q98 0 201.5 -12t135.5 -24t32 -44v-137q0 -43 -41 -43h-4q-191 16 -320 16q-297 0 -297 -383v-301q0 -383 297 -383q72 0 160 6l160 11h4q41 0 41 -43
v-138z" />
    <glyph glyph-name="afii10035" unicode="&#x421;" horiz-adv-x="1153" 
d="M1061 63q0 -32 -32.5 -43.5t-134.5 -23.5t-202 -12q-261 0 -420 159t-159 467v301q0 240 88 379.5t218 193.5t273 54q98 0 201.5 -12t135.5 -24t32 -44v-137q0 -43 -41 -43h-4q-191 16 -320 16q-297 0 -297 -383v-301q0 -383 297 -383q72 0 160 6l160 11h4q41 0 41 -43
v-138z" />
    <glyph glyph-name="afii10036" unicode="&#xd2;" horiz-adv-x="1186" 
d="M1135 1321q0 -37 -41 -37h-359v-1243q0 -17 -12 -29t-29 -12h-202q-17 0 -29 12t-12 29v1243h-359q-41 0 -41 37v162q0 16 12 27.5t29 11.5h1002q17 0 29 -11.5t12 -27.5v-162z" />
    <glyph glyph-name="afii10036" unicode="&#x422;" horiz-adv-x="1186" 
d="M1135 1321q0 -37 -41 -37h-359v-1243q0 -17 -12 -29t-29 -12h-202q-17 0 -29 12t-12 29v1243h-359q-41 0 -41 37v162q0 16 12 27.5t29 11.5h1002q17 0 29 -11.5t12 -27.5v-162z" />
    <glyph glyph-name="afii10037" unicode="&#xd3;" horiz-adv-x="1174" 
d="M605 608l221 881q8 35 41 35h209q38 0 38 -32q0 -7 -3 -15l-336 -1172q-59 -207 -151.5 -264t-266.5 -57q-67 0 -138 10.5t-96.5 21.5t-25.5 29v131q0 37 39 37l238 -12q69 0 105.5 26.5t66.5 141.5h-31q-76 0 -116 45.5t-62 124.5l-268 938q-3 8 -3 16q0 31 39 31h207
q30 0 39 -37l207 -834q7 -27 13 -36t22 -9h12z" />
    <glyph glyph-name="afii10037" unicode="&#x423;" horiz-adv-x="1174" 
d="M605 608l221 881q8 35 41 35h209q38 0 38 -32q0 -7 -3 -15l-336 -1172q-59 -207 -151.5 -264t-266.5 -57q-67 0 -138 10.5t-96.5 21.5t-25.5 29v131q0 37 39 37l238 -12q69 0 105.5 26.5t66.5 141.5h-31q-76 0 -116 45.5t-62 124.5l-268 938q-3 8 -3 16q0 31 39 31h207
q30 0 39 -37l207 -834q7 -27 13 -36t22 -9h12z" />
    <glyph glyph-name="afii10038" unicode="&#xd4;" horiz-adv-x="1804" 
d="M1044 1483v-137q18 2 72 2q288 0 439 -119.5t151 -354.5v-18q0 -157 -68 -263.5t-201 -161t-321 -54.5h-72v-336q0 -17 -11 -29t-27 -12h-205q-17 0 -29 12t-12 29v336h-72q-284 0 -437 121.5t-153 357.5v18q0 235 151 354.5t439 119.5q52 0 72 -2v137q0 16 12 27.5
t29 11.5h203q17 0 28.5 -11.5t11.5 -27.5zM1044 610h72q159 0 233 58.5t74 187.5v18q0 124 -73 181t-234 57q-46 0 -72 -2v-500zM688 610h72v500q-28 2 -72 2q-161 0 -234 -57t-73 -181v-18q0 -125 72 -185.5t235 -60.5z" />
    <glyph glyph-name="afii10038" unicode="&#x424;" horiz-adv-x="1804" 
d="M1044 1483v-137q18 2 72 2q288 0 439 -119.5t151 -354.5v-18q0 -157 -68 -263.5t-201 -161t-321 -54.5h-72v-336q0 -17 -11 -29t-27 -12h-205q-17 0 -29 12t-12 29v336h-72q-284 0 -437 121.5t-153 357.5v18q0 235 151 354.5t439 119.5q52 0 72 -2v137q0 16 12 27.5
t29 11.5h203q17 0 28.5 -11.5t11.5 -27.5zM1044 610h72q159 0 233 58.5t74 187.5v18q0 124 -73 181t-234 57q-46 0 -72 -2v-500zM688 610h72v500q-28 2 -72 2q-161 0 -234 -57t-73 -181v-18q0 -125 72 -185.5t235 -60.5z" />
    <glyph glyph-name="afii10039" unicode="&#xd5;" horiz-adv-x="1331" 
d="M829 762l451 -721q4 -6 4 -16q0 -25 -33 -25h-241q-18 0 -31 12.5t-108 166.5l-216 345l-177 -303q-105 -180 -111 -190.5t-18.5 -20.5t-29.5 -10h-223q-33 0 -33 27q0 7 5 14l436 727l-449 715q-4 8 -4 12q0 27 33 27h242q19 0 33 -14.5t114 -175.5l205 -326l176 304
q102 176 106.5 183.5t18.5 18t29 10.5h223q33 0 33 -27q0 -5 -4 -12z" />
    <glyph glyph-name="afii10039" unicode="&#x425;" horiz-adv-x="1331" 
d="M829 762l451 -721q4 -6 4 -16q0 -25 -33 -25h-241q-18 0 -31 12.5t-108 166.5l-216 345l-177 -303q-105 -180 -111 -190.5t-18.5 -20.5t-29.5 -10h-223q-33 0 -33 27q0 7 5 14l436 727l-449 715q-4 8 -4 12q0 27 33 27h242q19 0 33 -14.5t114 -175.5l205 -326l176 304
q102 176 106.5 183.5t18.5 18t29 10.5h223q33 0 33 -27q0 -5 -4 -12z" />
    <glyph glyph-name="afii10040" unicode="&#xd6;" horiz-adv-x="1548" 
d="M1305 352q0 -60 -9 -98h191q17 0 29 -12t12 -29v-455q0 -16 -12 -28.5t-29 -12.5h-203q-17 0 -29 12t-12 29v242h-719q-196 0 -283 82.5t-87 269.5v1129q0 17 12 29t29 12h202q17 0 29 -12t12 -29v-1129q0 -57 17 -78.5t69 -21.5h410q50 0 68 20.5t18 79.5v1129
q0 17 12 29t29 12h203q17 0 29 -12t12 -29v-1129z" />
    <glyph glyph-name="afii10040" unicode="&#x426;" horiz-adv-x="1548" 
d="M1305 352q0 -60 -9 -98h191q17 0 29 -12t12 -29v-455q0 -16 -12 -28.5t-29 -12.5h-203q-17 0 -29 12t-12 29v242h-719q-196 0 -283 82.5t-87 269.5v1129q0 17 12 29t29 12h202q17 0 29 -12t12 -29v-1129q0 -57 17 -78.5t69 -21.5h410q50 0 68 20.5t18 79.5v1129
q0 17 12 29t29 12h203q17 0 29 -12t12 -29v-1129z" />
    <glyph glyph-name="afii10041" unicode="&#xd7;" horiz-adv-x="1417" 
d="M133 1479q0 17 12.5 30t28.5 13h203q16 0 28.5 -13t12.5 -30v-469q0 -128 59.5 -172.5t198.5 -44.5q153 0 323 65v621q0 17 12.5 30t28.5 13h203q17 0 29 -13t12 -30v-1438q0 -17 -12 -29t-29 -12h-203q-16 0 -28.5 12t-12.5 29v590q-188 -76 -397 -76q-229 0 -349 118.5
t-120 334.5v471z" />
    <glyph glyph-name="afii10041" unicode="&#x427;" horiz-adv-x="1417" 
d="M133 1479q0 17 12.5 30t28.5 13h203q16 0 28.5 -13t12.5 -30v-469q0 -128 59.5 -172.5t198.5 -44.5q153 0 323 65v621q0 17 12.5 30t28.5 13h203q17 0 29 -13t12 -30v-1438q0 -17 -12 -29t-29 -12h-203q-16 0 -28.5 12t-12.5 29v590q-188 -76 -397 -76q-229 0 -349 118.5
t-120 334.5v471z" />
    <glyph glyph-name="afii10042" unicode="&#xd8;" horiz-adv-x="2058" 
d="M897 1481q0 17 12 29t29 12h203q17 0 29 -12t12 -29v-1229h352q52 0 69 21.5t17 78.5v1129q0 17 12 29t29 12h203q17 0 29 -12t12 -29v-1129q0 -187 -87.5 -269.5t-283.5 -82.5h-1010q-196 0 -283 82.5t-87 269.5v1129q0 17 12 29t29 12h202q17 0 29 -12t12 -29v-1129
q0 -57 17 -78.5t69 -21.5h373v1229z" />
    <glyph glyph-name="afii10042" unicode="&#x428;" horiz-adv-x="2058" 
d="M897 1481q0 17 12 29t29 12h203q17 0 29 -12t12 -29v-1229h352q52 0 69 21.5t17 78.5v1129q0 17 12 29t29 12h203q17 0 29 -12t12 -29v-1129q0 -187 -87.5 -269.5t-283.5 -82.5h-1010q-196 0 -283 82.5t-87 269.5v1129q0 17 12 29t29 12h202q17 0 29 -12t12 -29v-1129
q0 -57 17 -78.5t69 -21.5h373v1229z" />
    <glyph glyph-name="afii10043" unicode="&#xd9;" horiz-adv-x="2189" 
d="M897 1481q0 17 12 29t29 12h203q17 0 29 -12t12 -29v-1229h352q52 0 69 21.5t17 78.5v1129q0 17 12 29t29 12h203q17 0 29 -12t12 -29v-1129q0 -60 -9 -98h191q17 0 29 -12t12 -29v-455q0 -16 -12 -28.5t-29 -12.5h-203q-17 0 -29 12.5t-12 28.5v242h-1319
q-196 0 -283 82.5t-87 269.5v1129q0 17 12 29t29 12h202q17 0 29 -12t12 -29v-1129q0 -57 17 -78.5t69 -21.5h373v1229z" />
    <glyph glyph-name="afii10043" unicode="&#x429;" horiz-adv-x="2189" 
d="M897 1481q0 17 12 29t29 12h203q17 0 29 -12t12 -29v-1229h352q52 0 69 21.5t17 78.5v1129q0 17 12 29t29 12h203q17 0 29 -12t12 -29v-1129q0 -60 -9 -98h191q17 0 29 -12t12 -29v-455q0 -16 -12 -28.5t-29 -12.5h-203q-17 0 -29 12.5t-12 28.5v242h-1319
q-196 0 -283 82.5t-87 269.5v1129q0 17 12 29t29 12h202q17 0 29 -12t12 -29v-1129q0 -57 17 -78.5t69 -21.5h373v1229z" />
    <glyph glyph-name="afii10044" unicode="&#xda;" horiz-adv-x="1272" 
d="M399 1524q17 0 28 -12t11 -29v-520q53 4 183 4q287 0 438 -119.5t151 -353.5v-37q0 -156 -67 -261.5t-199.5 -158.5t-322.5 -53q-140 0 -281 12t-163.5 27.5t-22.5 48.5v1214h-144q-41 0 -41 37v162q0 16 12 27.5t29 11.5h389zM438 723v-496q85 -8 183 -8q161 0 234 57
t73 181v37q0 126 -75 181.5t-232 55.5q-98 0 -183 -8z" />
    <glyph glyph-name="afii10044" unicode="&#x42a;" horiz-adv-x="1272" 
d="M399 1524q17 0 28 -12t11 -29v-520q53 4 183 4q287 0 438 -119.5t151 -353.5v-37q0 -156 -67 -261.5t-199.5 -158.5t-322.5 -53q-140 0 -281 12t-163.5 27.5t-22.5 48.5v1214h-144q-41 0 -41 37v162q0 16 12 27.5t29 11.5h389zM438 723v-496q85 -8 183 -8q161 0 234 57
t73 181v37q0 126 -75 181.5t-232 55.5q-98 0 -183 -8z" />
    <glyph glyph-name="afii10045" unicode="&#xdb;" horiz-adv-x="1860" 
d="M438 1481v-518q53 4 183 4q287 0 438 -119.5t151 -353.5v-37q0 -156 -67 -261.5t-199.5 -158.5t-322.5 -53q-140 0 -281 12t-163.5 27.5t-22.5 48.5v1409q0 17 12 29t29 12h204q17 0 28 -12t11 -29zM438 723v-496q85 -8 183 -8q161 0 234 57t73 181v37q0 126 -75 181.5
t-232 55.5q-98 0 -183 -8zM1706 41q0 -17 -12 -29t-29 -12h-203q-17 0 -29 12t-12 29v1442q0 16 12 27.5t29 11.5h203q17 0 29 -11.5t12 -27.5v-1442z" />
    <glyph glyph-name="afii10045" unicode="&#x42b;" horiz-adv-x="1860" 
d="M438 1481v-518q53 4 183 4q287 0 438 -119.5t151 -353.5v-37q0 -156 -67 -261.5t-199.5 -158.5t-322.5 -53q-140 0 -281 12t-163.5 27.5t-22.5 48.5v1409q0 17 12 29t29 12h204q17 0 28 -12t11 -29zM438 723v-496q85 -8 183 -8q161 0 234 57t73 181v37q0 126 -75 181.5
t-232 55.5q-98 0 -183 -8zM1706 41q0 -17 -12 -29t-29 -12h-203q-17 0 -29 12t-12 29v1442q0 16 12 27.5t29 11.5h203q17 0 29 -11.5t12 -27.5v-1442z" />
    <glyph glyph-name="afii10046" unicode="&#xdc;" horiz-adv-x="1309" 
d="M438 1481v-518q53 4 183 4q287 0 438 -119.5t151 -353.5v-37q0 -156 -67 -261.5t-199.5 -158.5t-322.5 -53q-140 0 -281 12t-163.5 27.5t-22.5 48.5v1409q0 17 12 29t29 12h204q17 0 28 -12t11 -29zM438 723v-496q85 -8 183 -8q161 0 234 57t73 181v37q0 126 -75 181.5
t-232 55.5q-98 0 -183 -8z" />
    <glyph glyph-name="afii10046" unicode="&#x42c;" horiz-adv-x="1309" 
d="M438 1481v-518q53 4 183 4q287 0 438 -119.5t151 -353.5v-37q0 -156 -67 -261.5t-199.5 -158.5t-322.5 -53q-140 0 -281 12t-163.5 27.5t-22.5 48.5v1409q0 17 12 29t29 12h204q17 0 28 -12t11 -29zM438 723v-496q85 -8 183 -8q161 0 234 57t73 181v37q0 126 -75 181.5
t-232 55.5q-98 0 -183 -8z" />
    <glyph glyph-name="afii10047" unicode="&#xdd;" horiz-adv-x="1272" 
d="M877 668h-637q-17 0 -29 12t-12 29v147q0 17 12 29t29 12h637v12q0 203 -75.5 294t-279.5 91h-327q-17 0 -29 12t-12 29v131q0 25 13.5 34t115.5 23.5t241 14.5q332 0 483.5 -188.5t151.5 -561.5v-75q0 -359 -144 -544t-491 -185q-139 0 -241 14.5t-115.5 23t-13.5 33.5
v131q0 17 12 29t29 12h327q204 0 279.5 91.5t75.5 293.5v56z" />
    <glyph glyph-name="afii10047" unicode="&#x42d;" horiz-adv-x="1272" 
d="M877 668h-637q-17 0 -29 12t-12 29v147q0 17 12 29t29 12h637v12q0 203 -75.5 294t-279.5 91h-327q-17 0 -29 12t-12 29v131q0 25 13.5 34t115.5 23.5t241 14.5q332 0 483.5 -188.5t151.5 -561.5v-75q0 -359 -144 -544t-491 -185q-139 0 -241 14.5t-115.5 23t-13.5 33.5
v131q0 17 12 29t29 12h327q204 0 279.5 91.5t75.5 293.5v56z" />
    <glyph glyph-name="afii10048" unicode="&#xde;" horiz-adv-x="1966" 
d="M438 41q0 -17 -12 -29t-29 -12h-202q-17 0 -29 12t-12 29v1442q0 16 11.5 27.5t29.5 11.5h202q17 0 29 -11.5t12 -27.5v-600h248v16q0 311 152.5 475t431.5 164q278 0 430.5 -164t152.5 -475v-276q0 -312 -152.5 -475.5t-430.5 -163.5q-279 0 -431.5 163.5t-152.5 475.5
v28h-248v-610zM1567 623v276q0 200 -72.5 295.5t-224.5 95.5q-153 0 -225 -95.5t-72 -295.5v-276q0 -201 72 -296.5t225 -95.5q152 0 224.5 95.5t72.5 296.5z" />
    <glyph glyph-name="afii10048" unicode="&#x42e;" horiz-adv-x="1966" 
d="M438 41q0 -17 -12 -29t-29 -12h-202q-17 0 -29 12t-12 29v1442q0 16 11.5 27.5t29.5 11.5h202q17 0 29 -11.5t12 -27.5v-600h248v16q0 311 152.5 475t431.5 164q278 0 430.5 -164t152.5 -475v-276q0 -312 -152.5 -475.5t-430.5 -163.5q-279 0 -431.5 163.5t-152.5 475.5
v28h-248v-610zM1567 623v276q0 200 -72.5 295.5t-224.5 95.5q-153 0 -225 -95.5t-72 -295.5v-276q0 -201 72 -296.5t225 -95.5q152 0 224.5 95.5t72.5 296.5z" />
    <glyph glyph-name="afii10049" unicode="&#xdf;" horiz-adv-x="1337" 
d="M403 639q-276 110 -276 418v18q0 228 152.5 345.5t437.5 117.5q138 0 279 -12t164.5 -27.5t23.5 -48.5v-1409q0 -17 -12 -29t-29 -12h-205q-17 0 -28 12t-11 29v555q-127 -8 -182 -8h-29l-261 -485q-45 -83 -53.5 -93t-21.5 -10h-250q-24 0 -24 25q0 10 4 16zM410 1057
q0 -128 69 -183t238 -55q68 0 182 6v461q-85 8 -182 8q-156 0 -231.5 -52.5t-75.5 -166.5v-18z" />
    <glyph glyph-name="afii10049" unicode="&#x42f;" horiz-adv-x="1337" 
d="M403 639q-276 110 -276 418v18q0 228 152.5 345.5t437.5 117.5q138 0 279 -12t164.5 -27.5t23.5 -48.5v-1409q0 -17 -12 -29t-29 -12h-205q-17 0 -28 12t-11 29v555q-127 -8 -182 -8h-29l-261 -485q-45 -83 -53.5 -93t-21.5 -10h-250q-24 0 -24 25q0 10 4 16zM410 1057
q0 -128 69 -183t238 -55q68 0 182 6v461q-85 8 -182 8q-156 0 -231.5 -52.5t-75.5 -166.5v-18z" />
    <glyph glyph-name="afii10065" unicode="&#xe0;" horiz-adv-x="1122" 
d="M989 41q0 -17 -12 -29t-29 -12h-174q-17 0 -29 12t-12 29v33q-148 -90 -289 -90q-171 0 -262.5 86t-91.5 256v8q0 179 119 266.5t381 87.5h129v90q0 96 -42.5 131t-137.5 35q-93 0 -178 -5l-156 -11h-10q-37 0 -37 35v131q0 21 15.5 33.5t133 27t232.5 14.5
q450 0 450 -391v-737zM719 256v252h-129q-119 0 -173.5 -35t-54.5 -139v-8q0 -70 31.5 -98.5t116.5 -28.5q103 0 209 57z" />
    <glyph glyph-name="afii10065" unicode="&#x430;" horiz-adv-x="1122" 
d="M989 41q0 -17 -12 -29t-29 -12h-174q-17 0 -29 12t-12 29v33q-148 -90 -289 -90q-171 0 -262.5 86t-91.5 256v8q0 179 119 266.5t381 87.5h129v90q0 96 -42.5 131t-137.5 35q-93 0 -178 -5l-156 -11h-10q-37 0 -37 35v131q0 21 15.5 33.5t133 27t232.5 14.5
q450 0 450 -391v-737zM719 256v252h-129q-119 0 -173.5 -35t-54.5 -139v-8q0 -70 31.5 -98.5t116.5 -28.5q103 0 209 57z" />
    <glyph glyph-name="afii10066" unicode="&#xe1;" horiz-adv-x="1176" 
d="M1077 504q0 -239 -130 -379.5t-359 -140.5q-230 0 -360 140.5t-130 379.5v114q0 164 8 270.5t37 197t91 157.5t143 97.5t276 66.5q51 9 85.5 29t43.5 75q6 27 31 27h217q25 0 25 -27q0 -228 -279 -286q-170 -35 -219 -47.5t-90.5 -37t-56.5 -69.5q73 37 178 37
q228 0 358.5 -139t130.5 -371v-94zM807 504v94q0 143 -54 209.5t-165 66.5q-219 0 -219 -276v-94q0 -151 54.5 -219t164.5 -68q219 0 219 287z" />
    <glyph glyph-name="afii10066" unicode="&#x431;" horiz-adv-x="1176" 
d="M1077 504q0 -239 -130 -379.5t-359 -140.5q-230 0 -360 140.5t-130 379.5v114q0 164 8 270.5t37 197t91 157.5t143 97.5t276 66.5q51 9 85.5 29t43.5 75q6 27 31 27h217q25 0 25 -27q0 -228 -279 -286q-170 -35 -219 -47.5t-90.5 -37t-56.5 -69.5q73 37 178 37
q228 0 358.5 -139t130.5 -371v-94zM807 504v94q0 143 -54 209.5t-165 66.5q-219 0 -219 -276v-94q0 -151 54.5 -219t164.5 -68q219 0 219 287z" />
    <glyph glyph-name="afii10067" unicode="&#xe2;" horiz-adv-x="1182" 
d="M1100 324q0 -178 -132.5 -259t-439.5 -81q-130 0 -235 8.5t-132.5 27.5t-27.5 66v985q0 37 18.5 59.5t129.5 30.5t233 8q338 0 458 -79t120 -248v-13q0 -77 -44 -141.5t-126 -91.5q178 -58 178 -260v-12zM829 829v13q0 86 -58.5 106.5t-195.5 20.5q-94 0 -172 -4v-277
h181q117 0 181 27.5t64 113.5zM838 346v12q0 96 -62 123t-192 27h-181v-320q59 -2 125 -2q174 0 242 33.5t68 126.5z" />
    <glyph glyph-name="afii10067" unicode="&#x432;" horiz-adv-x="1182" 
d="M1100 324q0 -178 -132.5 -259t-439.5 -81q-130 0 -235 8.5t-132.5 27.5t-27.5 66v985q0 37 18.5 59.5t129.5 30.5t233 8q338 0 458 -79t120 -248v-13q0 -77 -44 -141.5t-126 -91.5q178 -58 178 -260v-12zM829 829v13q0 86 -58.5 106.5t-195.5 20.5q-94 0 -172 -4v-277
h181q117 0 181 27.5t64 113.5zM838 346v12q0 96 -62 123t-192 27h-181v-320q59 -2 125 -2q174 0 242 33.5t68 126.5z" />
    <glyph glyph-name="afii10068" unicode="&#xe3;" horiz-adv-x="823" 
d="M504 918q-101 0 -101 -115v-762q0 -17 -12 -29t-29 -12h-188q-17 0 -29 12t-12 29v762q0 187 87.5 269.5t283.5 82.5h244q16 0 28 -12t12 -29v-156q0 -16 -12 -28t-28 -12h-244z" />
    <glyph glyph-name="afii10068" unicode="&#x433;" horiz-adv-x="823" 
d="M504 918q-101 0 -101 -115v-762q0 -17 -12 -29t-29 -12h-188q-17 0 -29 12t-12 29v762q0 187 87.5 269.5t283.5 82.5h244q16 0 28 -12t12 -29v-156q0 -16 -12 -28t-28 -12h-244z" />
    <glyph glyph-name="afii10069" unicode="&#xe4;" horiz-adv-x="1374" 
d="M1073 0h-772v-242q0 -16 -12 -28.5t-29 -12.5h-188q-17 0 -29 12.5t-12 28.5v424q0 17 12 29t29 12h139l197 738q56 208 284 208q226 0 285 -208l207 -738h119q16 0 28 -12t12 -29v-424q0 -17 -12 -29t-28 -12h-189q-17 0 -29 12.5t-12 28.5v242zM907 223l-159 603
q-23 85 -27.5 91.5t-11.5 9.5t-17 3q-11 0 -18 -3.5t-11.5 -11t-31.5 -118.5l-142 -574h418z" />
    <glyph glyph-name="afii10069" unicode="&#x434;" horiz-adv-x="1374" 
d="M1073 0h-772v-242q0 -16 -12 -28.5t-29 -12.5h-188q-17 0 -29 12.5t-12 28.5v424q0 17 12 29t29 12h139l197 738q56 208 284 208q226 0 285 -208l207 -738h119q16 0 28 -12t12 -29v-424q0 -17 -12 -29t-28 -12h-189q-17 0 -29 12.5t-12 28.5v242zM907 223l-159 603
q-23 85 -27.5 91.5t-11.5 9.5t-17 3q-11 0 -18 -3.5t-11.5 -11t-31.5 -118.5l-142 -574h418z" />
    <glyph glyph-name="afii10070" unicode="&#xe5;" horiz-adv-x="1176" 
d="M1077 535q0 -52 -41 -52h-667v-6q0 -108 56 -184t189 -76q99 0 197 7l180 14h6q37 0 37 -31v-135q0 -40 -20 -47.5t-129.5 -24t-290.5 -16.5q-213 0 -354.5 132t-141.5 382v151q0 243 130.5 381.5t361.5 138.5q227 0 357 -141t130 -379v-114zM805 676v8q0 117 -59 184.5
t-156 67.5q-99 0 -159 -67.5t-60 -184.5v-8h434z" />
    <glyph glyph-name="afii10070" unicode="&#x435;" horiz-adv-x="1176" 
d="M1077 535q0 -52 -41 -52h-667v-6q0 -108 56 -184t189 -76q99 0 197 7l180 14h6q37 0 37 -31v-135q0 -40 -20 -47.5t-129.5 -24t-290.5 -16.5q-213 0 -354.5 132t-141.5 382v151q0 243 130.5 381.5t361.5 138.5q227 0 357 -141t130 -379v-114zM805 676v8q0 117 -59 184.5
t-156 67.5q-99 0 -159 -67.5t-60 -184.5v-8h434z" />
    <glyph glyph-name="afii10072" unicode="&#xe6;" horiz-adv-x="1712" 
d="M721 664v450q0 17 12 29t29 12h188q17 0 29 -12t12 -29v-450l221 294q130 173 135.5 179.5t18 12t23.5 5.5h229q31 0 31 -22q0 -11 -5 -16l-415 -511l274 -372q143 -195 145.5 -199.5t2.5 -9.5q0 -25 -29 -25h-250q-34 0 -69 53l-312 455v-465q0 -17 -12 -30t-29 -13
h-188q-17 0 -29 13t-12 30v465l-206 -299q-118 -171 -124 -179t-21.5 -19t-29.5 -11h-250q-29 0 -29 25q0 4 1.5 7t50.5 70l370 504l-274 337q-140 172 -143 177.5t-3 12.5q0 22 31 22h230q28 0 47 -25z" />
    <glyph glyph-name="afii10072" unicode="&#x436;" horiz-adv-x="1712" 
d="M721 664v450q0 17 12 29t29 12h188q17 0 29 -12t12 -29v-450l221 294q130 173 135.5 179.5t18 12t23.5 5.5h229q31 0 31 -22q0 -11 -5 -16l-415 -511l274 -372q143 -195 145.5 -199.5t2.5 -9.5q0 -25 -29 -25h-250q-34 0 -69 53l-312 455v-465q0 -17 -12 -30t-29 -13
h-188q-17 0 -29 13t-12 30v465l-206 -299q-118 -171 -124 -179t-21.5 -19t-29.5 -11h-250q-29 0 -29 25q0 4 1.5 7t50.5 70l370 504l-274 337q-140 172 -143 177.5t-3 12.5q0 22 31 22h230q28 0 47 -25z" />
    <glyph glyph-name="afii10073" unicode="&#xe7;" horiz-adv-x="989" 
d="M891 334q0 -350 -463 -350q-114 0 -224.5 17.5t-126.5 27.5t-16 24v142q0 28 33 28h2q216 -22 332 -22q118 0 155.5 28.5t37.5 104.5v20q0 78 -38.5 106.5t-119.5 28.5h-307q-33 0 -33 29v144q0 30 33 30h307q82 0 120 26.5t38 104.5v17q0 73 -46 94.5t-147 21.5
q-61 0 -149 -7l-183 -15h-2q-33 0 -33 29v137q0 14 16 24t126.5 27.5t224.5 17.5q242 0 352.5 -81.5t110.5 -247.5v-17q0 -154 -148 -231q69 -27 108.5 -96t39.5 -142v-20z" />
    <glyph glyph-name="afii10073" unicode="&#x437;" horiz-adv-x="989" 
d="M891 334q0 -350 -463 -350q-114 0 -224.5 17.5t-126.5 27.5t-16 24v142q0 28 33 28h2q216 -22 332 -22q118 0 155.5 28.5t37.5 104.5v20q0 78 -38.5 106.5t-119.5 28.5h-307q-33 0 -33 29v144q0 30 33 30h307q82 0 120 26.5t38 104.5v17q0 73 -46 94.5t-147 21.5
q-61 0 -149 -7l-183 -15h-2q-33 0 -33 29v137q0 14 16 24t126.5 27.5t224.5 17.5q242 0 352.5 -81.5t110.5 -247.5v-17q0 -154 -148 -231q69 -27 108.5 -96t39.5 -142v-20z" />
    <glyph glyph-name="afii10074" unicode="&#xe8;" horiz-adv-x="1212" 
d="M1079 41q0 -17 -12 -29t-29 -12h-188q-17 0 -29 12t-12 29v47q-151 -102 -322 -102q-177 0 -265.5 100t-88.5 358v668q0 17 12.5 30t28.5 13h188q17 0 29 -13t12 -30v-668q0 -131 34 -182t141 -51q80 0 231 82v819q0 17 12 30t29 13h188q17 0 29 -13t12 -30v-1071z" />
    <glyph glyph-name="afii10074" unicode="&#x438;" horiz-adv-x="1212" 
d="M1079 41q0 -17 -12 -29t-29 -12h-188q-17 0 -29 12t-12 29v47q-151 -102 -322 -102q-177 0 -265.5 100t-88.5 358v668q0 17 12.5 30t28.5 13h188q17 0 29 -13t12 -30v-668q0 -131 34 -182t141 -51q80 0 231 82v819q0 17 12 30t29 13h188q17 0 29 -13t12 -30v-1071z" />
    <glyph glyph-name="afii10075" unicode="&#xe9;" horiz-adv-x="1212" 
d="M270 1595h150q20 0 26 -24q36 -135 164 -135q129 0 164 135q6 24 27 24h149q23 0 23 -17q0 -38 -34 -115.5t-119.5 -132t-209.5 -54.5t-209 54.5t-119.5 132t-34.5 115.5q0 17 23 17zM1079 41q0 -17 -12 -29t-29 -12h-188q-17 0 -29 12t-12 29v47q-151 -102 -322 -102
q-177 0 -265.5 100t-88.5 358v668q0 17 12.5 30t28.5 13h188q17 0 29 -13t12 -30v-668q0 -131 34 -182t141 -51q80 0 231 82v819q0 17 12 30t29 13h188q17 0 29 -13t12 -30v-1071z" />
    <glyph glyph-name="afii10075" unicode="&#x439;" horiz-adv-x="1212" 
d="M270 1595h150q20 0 26 -24q36 -135 164 -135q129 0 164 135q6 24 27 24h149q23 0 23 -17q0 -38 -34 -115.5t-119.5 -132t-209.5 -54.5t-209 54.5t-119.5 132t-34.5 115.5q0 17 23 17zM1079 41q0 -17 -12 -29t-29 -12h-188q-17 0 -29 12t-12 29v47q-151 -102 -322 -102
q-177 0 -265.5 100t-88.5 358v668q0 17 12.5 30t28.5 13h188q17 0 29 -13t12 -30v-668q0 -131 34 -182t141 -51q80 0 231 82v819q0 17 12 30t29 13h188q17 0 29 -13t12 -30v-1071z" />
    <glyph glyph-name="afii10076" unicode="&#xea;" horiz-adv-x="1124" 
d="M641 606l274 -372q143 -195 145.5 -199.5t2.5 -9.5q0 -25 -29 -25h-250q-34 0 -69 53l-312 455v-465q0 -17 -12 -30t-29 -13h-188q-16 0 -28.5 13t-12.5 30v1071q0 17 12 29t29 12h188q17 0 29 -12t12 -29v-450l221 294q130 173 135.5 179.5t18 12t23.5 5.5h229
q31 0 31 -22q0 -11 -5 -16z" />
    <glyph glyph-name="afii10076" unicode="&#x43a;" horiz-adv-x="1124" 
d="M641 606l274 -372q143 -195 145.5 -199.5t2.5 -9.5q0 -25 -29 -25h-250q-34 0 -69 53l-312 455v-465q0 -17 -12 -30t-29 -13h-188q-16 0 -28.5 13t-12.5 30v1071q0 17 12 29t29 12h188q17 0 29 -12t12 -29v-450l221 294q130 173 135.5 179.5t18 12t23.5 5.5h229
q31 0 31 -22q0 -11 -5 -16z" />
    <glyph glyph-name="afii10077" unicode="&#xeb;" horiz-adv-x="1212" 
d="M858 35l-203 862q-10 41 -45 41t-45 -41l-200 -862q-8 -35 -39 -35h-205q-37 0 -37 35q0 2 2 10l240 916q54 208 284 208t285 -208l244 -926q0 -35 -37 -35h-205q-31 0 -39 35z" />
    <glyph glyph-name="afii10077" unicode="&#x43b;" horiz-adv-x="1212" 
d="M858 35l-203 862q-10 41 -45 41t-45 -41l-200 -862q-8 -35 -39 -35h-205q-37 0 -37 35q0 2 2 10l240 916q54 208 284 208t285 -208l244 -926q0 -35 -37 -35h-205q-31 0 -39 35z" />
    <glyph glyph-name="afii10078" unicode="&#xec;" horiz-adv-x="1470" 
d="M1317 23q0 -23 -33 -23h-190q-11 0 -20 10t-9 21v721q0 14 -6 14q-2 0 -8 -8l-105 -192q-59 -106 -63.5 -112t-20 -12t-31.5 -6h-188q-45 0 -61 27l-162 295q-2 1 -4 4q-3 4 -4 4q-6 0 -6 -14v-721q0 -11 -9.5 -21t-19.5 -10h-191q-32 0 -32 23v1067q0 25 22 44t51 19
h156q15 0 29 -5t24.5 -14t47.5 -77l229 -418q10 -21 24 -21q10 0 13 8l268 488q21 39 69 39h156q30 0 52 -19t22 -44v-1067z" />
    <glyph glyph-name="afii10078" unicode="&#x43c;" horiz-adv-x="1470" 
d="M1317 23q0 -23 -33 -23h-190q-11 0 -20 10t-9 21v721q0 14 -6 14q-2 0 -8 -8l-105 -192q-59 -106 -63.5 -112t-20 -12t-31.5 -6h-188q-45 0 -61 27l-162 295q-2 1 -4 4q-3 4 -4 4q-6 0 -6 -14v-721q0 -11 -9.5 -21t-19.5 -10h-191q-32 0 -32 23v1067q0 25 22 44t51 19
h156q15 0 29 -5t24.5 -14t47.5 -77l229 -418q10 -21 24 -21q10 0 13 8l268 488q21 39 69 39h156q30 0 52 -19t22 -44v-1067z" />
    <glyph glyph-name="afii10079" unicode="&#xed;" horiz-adv-x="1212" 
d="M403 43q0 -17 -12 -30t-29 -13h-188q-16 0 -28.5 13t-12.5 30v1069q0 17 12.5 30t28.5 13h188q17 0 29 -13t12 -30v-414h406v414q0 17 12 30t29 13h188q17 0 29 -13t12 -30v-1069q0 -17 -12 -30t-29 -13h-188q-17 0 -29 13t-12 30v453h-406v-453z" />
    <glyph glyph-name="afii10079" unicode="&#x43d;" horiz-adv-x="1212" 
d="M403 43q0 -17 -12 -30t-29 -13h-188q-16 0 -28.5 13t-12.5 30v1069q0 17 12.5 30t28.5 13h188q17 0 29 -13t12 -30v-414h406v414q0 17 12 30t29 13h188q17 0 29 -13t12 -30v-1069q0 -17 -12 -30t-29 -13h-188q-17 0 -29 13t-12 30v453h-406v-453z" />
    <glyph glyph-name="afii10080" unicode="&#xee;" horiz-adv-x="1176" 
d="M1077 494q0 -233 -130.5 -371.5t-358.5 -138.5q-229 0 -359.5 138.5t-130.5 371.5v165q0 233 130.5 371.5t359.5 138.5q228 0 358.5 -138.5t130.5 -371.5v-165zM807 494v165q0 131 -57.5 204t-161.5 73t-161.5 -73t-57.5 -204v-165q0 -129 56.5 -203t162.5 -74
q104 0 161.5 73t57.5 204z" />
    <glyph glyph-name="afii10080" unicode="&#x43e;" horiz-adv-x="1176" 
d="M1077 494q0 -233 -130.5 -371.5t-358.5 -138.5q-229 0 -359.5 138.5t-130.5 371.5v165q0 233 130.5 371.5t359.5 138.5q228 0 358.5 -138.5t130.5 -371.5v-165zM807 494v165q0 131 -57.5 204t-161.5 73t-161.5 -73t-57.5 -204v-165q0 -129 56.5 -203t162.5 -74
q104 0 161.5 73t57.5 204z" />
    <glyph glyph-name="afii10081" unicode="&#xef;" horiz-adv-x="1212" 
d="M743 932h-274q-43 0 -54.5 -18t-11.5 -58v-813q0 -17 -12 -30t-29 -13h-188q-16 0 -28.5 13t-12.5 30v815q0 144 65 220.5t271 76.5h274q207 0 271.5 -76.5t64.5 -220.5v-815q0 -17 -12 -30t-29 -13h-188q-17 0 -29 13t-12 30v813q0 40 -11 58t-55 18z" />
    <glyph glyph-name="afii10081" unicode="&#x43f;" horiz-adv-x="1212" 
d="M743 932h-274q-43 0 -54.5 -18t-11.5 -58v-813q0 -17 -12 -30t-29 -13h-188q-16 0 -28.5 13t-12.5 30v815q0 144 65 220.5t271 76.5h274q207 0 271.5 -76.5t64.5 -220.5v-815q0 -17 -12 -30t-29 -13h-188q-17 0 -29 13t-12 30v813q0 40 -11 58t-55 18z" />
    <glyph glyph-name="afii10082" unicode="&#xf0;" horiz-adv-x="1182" 
d="M1090 498q0 -245 -123.5 -379.5t-366.5 -134.5q-89 0 -197 14v-363q0 -16 -12 -28.5t-29 -12.5h-188q-17 0 -29 12.5t-12 28.5v1426q0 29 22 43.5t164 39.5t281 25q238 0 364 -132.5t126 -381.5v-157zM819 498v157q0 156 -53.5 224.5t-165.5 68.5q-122 0 -197 -14v-715
q106 -14 197 -14q112 0 165.5 68.5t53.5 224.5z" />
    <glyph glyph-name="afii10082" unicode="&#x440;" horiz-adv-x="1182" 
d="M1090 498q0 -245 -123.5 -379.5t-366.5 -134.5q-89 0 -197 14v-363q0 -16 -12 -28.5t-29 -12.5h-188q-17 0 -29 12.5t-12 28.5v1426q0 29 22 43.5t164 39.5t281 25q238 0 364 -132.5t126 -381.5v-157zM819 498v157q0 156 -53.5 224.5t-165.5 68.5q-122 0 -197 -14v-715
q106 -14 197 -14q112 0 165.5 68.5t53.5 224.5z" />
    <glyph glyph-name="afii10083" unicode="&#xf1;" horiz-adv-x="958" 
d="M866 63q0 -29 -13.5 -40.5t-93 -25t-200.5 -13.5q-214 0 -340.5 131t-126.5 366v191q0 235 126.5 366t340.5 131q124 0 202.5 -14t91.5 -25t13 -40v-134q0 -30 -37 -30h-6q-114 14 -264 14q-197 0 -197 -268v-191q0 -268 197 -268q95 0 151 4l113 10h6q37 0 37 -30v-134z
" />
    <glyph glyph-name="afii10083" unicode="&#x441;" horiz-adv-x="958" 
d="M866 63q0 -29 -13.5 -40.5t-93 -25t-200.5 -13.5q-214 0 -340.5 131t-126.5 366v191q0 235 126.5 366t340.5 131q124 0 202.5 -14t91.5 -25t13 -40v-134q0 -30 -37 -30h-6q-114 14 -264 14q-197 0 -197 -268v-191q0 -268 197 -268q95 0 151 4l113 10h6q37 0 37 -30v-134z
" />
    <glyph glyph-name="afii10084" unicode="&#xf2;" horiz-adv-x="1110" 
d="M690 934v-891q0 -17 -12 -30t-29 -13h-188q-17 0 -29 13t-12 30v891h-318q-17 0 -29 11t-12 28v141q0 17 12.5 29t28.5 12h906q16 0 28.5 -12t12.5 -29v-141q0 -17 -12 -28t-29 -11h-318z" />
    <glyph glyph-name="afii10084" unicode="&#x442;" horiz-adv-x="1110" 
d="M690 934v-891q0 -17 -12 -30t-29 -13h-188q-17 0 -29 13t-12 30v891h-318q-17 0 -29 11t-12 28v141q0 17 12.5 29t28.5 12h906q16 0 28.5 -12t12.5 -29v-141q0 -17 -12 -28t-29 -11h-318z" />
    <glyph glyph-name="afii10085" unicode="&#xf3;" horiz-adv-x="1147" 
d="M588 240l221 880q8 35 41 35h209q15 0 26 -10.5t11 -24.5q0 -5 -2 -12l-342 -1196q-59 -207 -151.5 -264.5t-266.5 -57.5q-68 0 -139 11t-96 21.5t-25 29.5v131q0 37 41 37h4l231 -13q69 0 107 27t71 166h-30q-76 0 -116 46t-63 124l-268 938q-2 6 -2 14q0 33 39 33h207
q30 0 39 -37l207 -833q10 -45 28 -45h19z" />
    <glyph glyph-name="afii10085" unicode="&#x443;" horiz-adv-x="1147" 
d="M588 240l221 880q8 35 41 35h209q15 0 26 -10.5t11 -24.5q0 -5 -2 -12l-342 -1196q-59 -207 -151.5 -264.5t-266.5 -57.5q-68 0 -139 11t-96 21.5t-25 29.5v131q0 37 41 37h4l231 -13q69 0 107 27t71 166h-30q-76 0 -116 46t-63 124l-268 938q-2 6 -2 14q0 33 39 33h207
q30 0 39 -37l207 -833q10 -45 28 -45h19z" />
    <glyph glyph-name="afii10086" unicode="&#xf4;" horiz-adv-x="1757" 
d="M1659 498q0 -252 -122.5 -383t-358.5 -131q-61 0 -164 14v-363q0 -16 -12 -28.5t-29 -12.5h-189q-16 0 -28.5 12.5t-12.5 28.5v363q-103 -14 -163 -14q-237 0 -359.5 131t-122.5 383v157q0 246 120 380t362 134q83 0 163 -12v361q0 16 12 28.5t29 12.5h191q16 0 27.5 -12
t11.5 -29v-361q79 12 164 12q236 0 358.5 -131t122.5 -383v-157zM1389 498v157q0 163 -52 228t-159 65q-97 0 -164 -14v-715q100 -14 164 -14q107 0 159 65t52 228zM743 219v715q-67 14 -163 14q-108 0 -159.5 -65t-51.5 -228v-157q0 -163 51.5 -228t159.5 -65q63 0 163 14z
" />
    <glyph glyph-name="afii10086" unicode="&#x444;" horiz-adv-x="1757" 
d="M1659 498q0 -252 -122.5 -383t-358.5 -131q-61 0 -164 14v-363q0 -16 -12 -28.5t-29 -12.5h-189q-16 0 -28.5 12.5t-12.5 28.5v363q-103 -14 -163 -14q-237 0 -359.5 131t-122.5 383v157q0 246 120 380t362 134q83 0 163 -12v361q0 16 12 28.5t29 12.5h191q16 0 27.5 -12
t11.5 -29v-361q79 12 164 12q236 0 358.5 -131t122.5 -383v-157zM1389 498v157q0 163 -52 228t-159 65q-97 0 -164 -14v-715q100 -14 164 -14q107 0 159 65t52 228zM743 219v715q-67 14 -163 14q-108 0 -159.5 -65t-51.5 -228v-157q0 -163 51.5 -228t159.5 -65q63 0 163 14z
" />
    <glyph glyph-name="afii10087" unicode="&#xf5;" horiz-adv-x="1141" 
d="M723 598l237 -354q136 -203 138 -207t2 -10q0 -27 -31 -27h-233q-19 0 -30 9t-87 126l-172 266l-167 -272q-68 -111 -79.5 -120t-30.5 -9h-211q-24 0 -24 23q0 4 1 8t44 70l328 495l-221 330q-126 188 -128 192t-2 8q0 11 10 20t23 9h234q17 0 28 -10t78 -113l154 -237
l181 301q21 35 31 47t35 12h211q25 0 25 -22q0 -5 -1.5 -9t-40.5 -65z" />
    <glyph glyph-name="afii10087" unicode="&#x445;" horiz-adv-x="1141" 
d="M723 598l237 -354q136 -203 138 -207t2 -10q0 -27 -31 -27h-233q-19 0 -30 9t-87 126l-172 266l-167 -272q-68 -111 -79.5 -120t-30.5 -9h-211q-24 0 -24 23q0 4 1 8t44 70l328 495l-221 330q-126 188 -128 192t-2 8q0 11 10 20t23 9h234q17 0 28 -10t78 -113l154 -237
l181 301q21 35 31 47t35 12h211q25 0 25 -22q0 -5 -1.5 -9t-40.5 -65z" />
    <glyph glyph-name="afii10088" unicode="&#xf6;" horiz-adv-x="1305" 
d="M1233 203q17 0 29 -12t12 -29v-404q0 -16 -12 -28.5t-29 -12.5h-189q-16 0 -28 12.5t-12 28.5v242h-535q-206 0 -271 76.5t-65 220.5v815q0 17 12.5 30t28.5 13h188q17 0 29 -13t12 -30v-813q0 -39 11.5 -57.5t54.5 -18.5h274q37 0 51.5 14.5t14.5 61.5v813q0 17 12 30
t29 13h188q17 0 29 -13t12 -30v-815q0 -42 -8 -94h162z" />
    <glyph glyph-name="afii10088" unicode="&#x446;" horiz-adv-x="1305" 
d="M1233 203q17 0 29 -12t12 -29v-404q0 -16 -12 -28.5t-29 -12.5h-189q-16 0 -28 12.5t-12 28.5v242h-535q-206 0 -271 76.5t-65 220.5v815q0 17 12.5 30t28.5 13h188q17 0 29 -13t12 -30v-813q0 -39 11.5 -57.5t54.5 -18.5h274q37 0 51.5 14.5t14.5 61.5v813q0 17 12 30
t29 13h188q17 0 29 -13t12 -30v-815q0 -42 -8 -94h162z" />
    <glyph glyph-name="afii10089" unicode="&#xf7;" horiz-adv-x="1212" 
d="M133 1112q0 17 12.5 30t28.5 13h188q17 0 29 -13t12 -30v-270q0 -135 32.5 -179.5t135.5 -44.5q105 0 238 70v424q0 17 12 30t29 13h188q17 0 29 -13t12 -30v-1071q0 -17 -12 -29t-29 -12h-188q-17 0 -29 12t-12 29v424q-121 -76 -309 -76q-367 0 -367 453v270z" />
    <glyph glyph-name="afii10089" unicode="&#x447;" horiz-adv-x="1212" 
d="M133 1112q0 17 12.5 30t28.5 13h188q17 0 29 -13t12 -30v-270q0 -135 32.5 -179.5t135.5 -44.5q105 0 238 70v424q0 17 12 30t29 13h188q17 0 29 -13t12 -30v-1071q0 -17 -12 -29t-29 -12h-188q-17 0 -29 12t-12 29v424q-121 -76 -309 -76q-367 0 -367 453v270z" />
    <glyph glyph-name="afii10090" unicode="&#xf8;" horiz-adv-x="1737" 
d="M733 1112q0 17 12.5 30t28.5 13h189q16 0 28.5 -13t12.5 -30v-889h264q43 0 54 18.5t11 57.5v813q0 17 12.5 30t28.5 13h189q16 0 28.5 -13t12.5 -30v-815q0 -144 -65 -220.5t-271 -76.5h-799q-206 0 -271 76.5t-65 220.5v815q0 17 12.5 30t28.5 13h188q17 0 29 -13
t12 -30v-813q0 -39 11.5 -57.5t54.5 -18.5h264v889z" />
    <glyph glyph-name="afii10090" unicode="&#x448;" horiz-adv-x="1737" 
d="M733 1112q0 17 12.5 30t28.5 13h189q16 0 28.5 -13t12.5 -30v-889h264q43 0 54 18.5t11 57.5v813q0 17 12.5 30t28.5 13h189q16 0 28.5 -13t12.5 -30v-815q0 -144 -65 -220.5t-271 -76.5h-799q-206 0 -271 76.5t-65 220.5v815q0 17 12.5 30t28.5 13h188q17 0 29 -13
t12 -30v-813q0 -39 11.5 -57.5t54.5 -18.5h264v889z" />
    <glyph glyph-name="afii10091" unicode="&#xf9;" horiz-adv-x="1798" 
d="M733 1112q0 17 12.5 30t28.5 13h189q16 0 28.5 -13t12.5 -30v-889h264q43 0 54 18.5t11 57.5v813q0 17 12.5 30t28.5 13h189q16 0 28.5 -13t12.5 -30v-815q0 -30 -5 -74h158q17 0 29 -12t12 -29v-424q0 -16 -12 -28.5t-29 -12.5h-188q-17 0 -29 12.5t-12 28.5v242h-1059
q-206 0 -271 76.5t-65 220.5v815q0 17 12.5 30t28.5 13h188q17 0 29 -13t12 -30v-813q0 -39 11.5 -57.5t54.5 -18.5h264v889z" />
    <glyph glyph-name="afii10091" unicode="&#x449;" horiz-adv-x="1798" 
d="M733 1112q0 17 12.5 30t28.5 13h189q16 0 28.5 -13t12.5 -30v-889h264q43 0 54 18.5t11 57.5v813q0 17 12.5 30t28.5 13h189q16 0 28.5 -13t12.5 -30v-815q0 -30 -5 -74h158q17 0 29 -12t12 -29v-424q0 -16 -12 -28.5t-29 -12.5h-188q-17 0 -29 12.5t-12 28.5v242h-1059
q-206 0 -271 76.5t-65 220.5v815q0 17 12.5 30t28.5 13h188q17 0 29 -13t12 -30v-813q0 -39 11.5 -57.5t54.5 -18.5h264v889z" />
    <glyph glyph-name="afii10092" unicode="&#xfa;" horiz-adv-x="1174" 
d="M406 1155q16 0 28 -13t12 -30v-313h140q526 0 526 -396v-8q0 -395 -526 -395q-107 0 -227 9t-151.5 21t-31.5 38v860h-176q-17 0 -29 11t-12 28v147q0 17 12 29t29 12h406zM446 578v-347q93 -4 140 -4q134 0 194 39t60 129v8q0 96 -59.5 137.5t-194.5 41.5
q-114 0 -140 -4z" />
    <glyph glyph-name="afii10092" unicode="&#x44a;" horiz-adv-x="1174" 
d="M406 1155q16 0 28 -13t12 -30v-313h140q526 0 526 -396v-8q0 -395 -526 -395q-107 0 -227 9t-151.5 21t-31.5 38v860h-176q-17 0 -29 11t-12 28v147q0 17 12 29t29 12h406zM446 578v-347q93 -4 140 -4q134 0 194 39t60 129v8q0 96 -59.5 137.5t-194.5 41.5
q-114 0 -140 -4z" />
    <glyph glyph-name="afii10093" unicode="&#xfb;" horiz-adv-x="1632" 
d="M393 799h139q527 0 527 -396v-8q0 -395 -527 -395q-106 0 -226 9t-151.5 21t-31.5 38v1044q0 17 12 30t29 13h188q17 0 29 -13t12 -30v-313zM393 578v-347q93 -4 139 -4q135 0 194.5 39t59.5 129v8q0 96 -59 137.5t-195 41.5q-113 0 -139 -4zM1509 43q0 -17 -12 -30
t-29 -13h-188q-17 0 -29 13t-12 30v1071q0 17 12 29t29 12h188q17 0 29 -12t12 -29v-1071z" />
    <glyph glyph-name="afii10093" unicode="&#x44b;" horiz-adv-x="1632" 
d="M393 799h139q527 0 527 -396v-8q0 -395 -527 -395q-106 0 -226 9t-151.5 21t-31.5 38v1044q0 17 12 30t29 13h188q17 0 29 -13t12 -30v-313zM393 578v-347q93 -4 139 -4q135 0 194.5 39t59.5 129v8q0 96 -59 137.5t-195 41.5q-113 0 -139 -4zM1509 43q0 -17 -12 -30
t-29 -13h-188q-17 0 -29 13t-12 30v1071q0 17 12 29t29 12h188q17 0 29 -12t12 -29v-1071z" />
    <glyph glyph-name="afii10094" unicode="&#xfc;" horiz-adv-x="1100" 
d="M393 799h139q527 0 527 -396v-8q0 -395 -527 -395q-106 0 -226 9t-151.5 21t-31.5 38v1044q0 17 12 30t29 13h188q17 0 29 -13t12 -30v-313zM393 578v-347q93 -4 139 -4q135 0 194.5 39t59.5 129v8q0 96 -59 137.5t-195 41.5q-113 0 -139 -4z" />
    <glyph glyph-name="afii10094" unicode="&#x44c;" horiz-adv-x="1100" 
d="M393 799h139q527 0 527 -396v-8q0 -395 -527 -395q-106 0 -226 9t-151.5 21t-31.5 38v1044q0 17 12 30t29 13h188q17 0 29 -13t12 -30v-313zM393 578v-347q93 -4 139 -4q135 0 194.5 39t59.5 129v8q0 96 -59 137.5t-195 41.5q-113 0 -139 -4z" />
    <glyph glyph-name="afii10095" unicode="&#xfd;" horiz-adv-x="958" 
d="M866 610v-67q0 -286 -118 -422.5t-369 -136.5q-105 0 -183 14t-91 25t-13 40v127q0 38 36 38q11 0 58 -5q109 -10 172 -10q132 0 184.5 66t53.5 198h-395q-17 0 -29 11.5t-12 27.5v123q0 17 12 29t29 12h395q-1 130 -54 195t-184 65q-63 0 -172 -10q-47 -5 -58 -5
q-36 0 -36 38v127q0 30 14 41t92.5 24.5t180.5 13.5q251 0 369 -136.5t118 -422.5z" />
    <glyph glyph-name="afii10095" unicode="&#x44d;" horiz-adv-x="958" 
d="M866 610v-67q0 -286 -118 -422.5t-369 -136.5q-105 0 -183 14t-91 25t-13 40v127q0 38 36 38q11 0 58 -5q109 -10 172 -10q132 0 184.5 66t53.5 198h-395q-17 0 -29 11.5t-12 27.5v123q0 17 12 29t29 12h395q-1 130 -54 195t-184 65q-63 0 -172 -10q-47 -5 -58 -5
q-36 0 -36 38v127q0 30 14 41t92.5 24.5t180.5 13.5q251 0 369 -136.5t118 -422.5z" />
    <glyph glyph-name="afii10096" unicode="&#xfe;" horiz-adv-x="1743" 
d="M410 43q0 -17 -12.5 -30t-28.5 -13h-189q-16 0 -28.5 13t-12.5 30v1071q0 17 12 29t29 12h189q16 0 28.5 -12t12.5 -29v-424h256q13 224 143.5 349.5t345.5 125.5q229 0 359.5 -138.5t130.5 -371.5v-166q0 -232 -130.5 -370.5t-359.5 -138.5q-216 0 -346 124.5
t-143 348.5h-256v-410zM1374 489v166q0 129 -56.5 203t-162.5 74q-104 0 -161.5 -73t-57.5 -204v-166q0 -130 57.5 -203t161.5 -73t161.5 73t57.5 203z" />
    <glyph glyph-name="afii10096" unicode="&#x44e;" horiz-adv-x="1743" 
d="M410 43q0 -17 -12.5 -30t-28.5 -13h-189q-16 0 -28.5 13t-12.5 30v1071q0 17 12 29t29 12h189q16 0 28.5 -12t12.5 -29v-424h256q13 224 143.5 349.5t345.5 125.5q229 0 359.5 -138.5t130.5 -371.5v-166q0 -232 -130.5 -370.5t-359.5 -138.5q-216 0 -346 124.5
t-143 348.5h-256v-410zM1374 489v166q0 129 -56.5 203t-162.5 74q-104 0 -161.5 -73t-57.5 -204v-166q0 -130 57.5 -203t161.5 -73t161.5 73t57.5 203z" />
    <glyph glyph-name="afii10097" unicode="&#xff;" horiz-adv-x="1221" 
d="M369 473q-258 82 -258 324v14q0 358 555 358q123 0 248 -10t141 -22t16 -35v-1071q0 -12 -11.5 -21.5t-25.5 -9.5h-194q-39 0 -39 31v409q-63 -6 -135 -6h-33l-193 -286q-87 -128 -96.5 -138t-21.5 -10h-234q-27 0 -27 18q0 9 5 13zM377 797q0 -92 58.5 -129t230.5 -37
l135 4v319q-70 9 -135 9q-158 0 -223.5 -35.5t-65.5 -116.5v-14z" />
    <glyph glyph-name="afii10097" unicode="&#x44f;" horiz-adv-x="1221" 
d="M369 473q-258 82 -258 324v14q0 358 555 358q123 0 248 -10t141 -22t16 -35v-1071q0 -12 -11.5 -21.5t-25.5 -9.5h-194q-39 0 -39 31v409q-63 -6 -135 -6h-33l-193 -286q-87 -128 -96.5 -138t-21.5 -10h-234q-27 0 -27 18q0 9 5 13zM377 797q0 -92 58.5 -129t230.5 -37
l135 4v319q-70 9 -135 9q-158 0 -223.5 -35.5t-65.5 -116.5v-14z" />
    <glyph glyph-name="afii10071" unicode="&#xb8;" horiz-adv-x="1176" 
d="M907 1350q0 -17 -13 -29t-30 -12h-147q-17 0 -30 12t-13 29v180q0 17 13 29t30 12h147q17 0 30 -12.5t13 -28.5v-180zM498 1350q0 -17 -13 -29t-30 -12h-148q-17 0 -30 12t-13 29v180q0 17 13 29t30 12h148q17 0 30 -12.5t13 -28.5v-180zM1077 535q0 -52 -41 -52h-667v-6
q0 -108 56 -184t189 -76q99 0 197 7l180 14h6q37 0 37 -31v-135q0 -40 -20 -47.5t-129.5 -24t-290.5 -16.5q-213 0 -354.5 132t-141.5 382v151q0 243 130.5 381.5t361.5 138.5q227 0 357 -141t130 -379v-114zM805 676v8q0 117 -59 184.5t-156 67.5q-99 0 -159 -67.5
t-60 -184.5v-8h434z" />
    <glyph glyph-name="afii10071" unicode="&#x451;" horiz-adv-x="1176" 
d="M907 1350q0 -17 -13 -29t-30 -12h-147q-17 0 -30 12t-13 29v180q0 17 13 29t30 12h147q17 0 30 -12.5t13 -28.5v-180zM498 1350q0 -17 -13 -29t-30 -12h-148q-17 0 -30 12t-13 29v180q0 17 13 29t30 12h148q17 0 30 -12.5t13 -28.5v-180zM1077 535q0 -52 -41 -52h-667v-6
q0 -108 56 -184t189 -76q99 0 197 7l180 14h6q37 0 37 -31v-135q0 -40 -20 -47.5t-129.5 -24t-290.5 -16.5q-213 0 -354.5 132t-141.5 382v151q0 243 130.5 381.5t361.5 138.5q227 0 357 -141t130 -379v-114zM805 676v8q0 117 -59 184.5t-156 67.5q-99 0 -159 -67.5
t-60 -184.5v-8h434z" />
    <glyph glyph-name="quotedbl" unicode="&#x22;" horiz-adv-x="860" 
d="M834 1536q0 -3 -1.5 -7t-3.5 -9l-139 -424q-6 -22 -14.5 -30.5t-24.5 -8.5h-164q-11 0 -14.5 5.5t-3.5 14.5v9.5t2 9.5l104 424q5 21 15.5 30t25.5 9h193q11 0 18 -6t7 -17zM424 1536q0 -3 -1 -7t-3 -9l-139 -424q-7 -22 -15.5 -30.5t-23.5 -8.5h-164q-11 0 -15 5.5
t-4 14.5v9.5t2 9.5l105 424q5 21 15 30t26 9h192q25 0 25 -23z" />
    <glyph glyph-name="numbersign" unicode="#" horiz-adv-x="1401" 
d="M1298 1073l-10 -92q-2 -17 -13 -29t-28 -12q-6 0 -26.5 -0.5t-47.5 -0.5t-56 -0.5t-52 -0.5l-33 -363h174q17 0 29 -10.5t12 -25.5v-4l-10 -95q-2 -17 -13 -29t-28 -12h-180l-31 -360q-2 -16 -11 -27.5t-26 -11.5h-162q-15 0 -23.5 10.5t-8.5 24.5v4l30 360h-266
l-31 -360q-2 -16 -11.5 -27.5t-24.5 -11.5h-164q-14 0 -23.5 10.5t-9.5 24.5v4l31 360h-170q-16 0 -28.5 11t-12.5 26v4l10 95q2 17 13 28.5t28 11.5h176l33 363l-166 2q-16 0 -28.5 10.5t-12.5 26.5v4l10 92q2 17 13 29t28 12h170l33 369q2 15 12.5 27t26.5 12h164
q14 0 22 -10.5t8 -24.5v-4l-32 -369h266l33 369q2 15 12 27t27 12h161q16 0 23.5 -10.5t7.5 -24.5v-4l-33 -369h178q16 0 28.5 -10.5t12.5 -26.5v-4zM567 938l-32 -363h266l33 363h-267z" />
    <glyph glyph-name="dollar" unicode="$" 
d="M1137 412q0 -65 -19 -130.5t-62 -122t-113 -99t-173 -62.5v-186q0 -17 -12 -29t-29 -12h-186q-17 0 -29 12t-12 29v174q-81 3 -145 12.5t-121 21.5q-16 4 -27.5 14t-11.5 27v148q0 17 11.5 28t27.5 11h4q31 -4 80.5 -7.5t102.5 -6.5t101.5 -5t77.5 -2q68 0 114 12
t73.5 35.5t39 58t11.5 79.5q0 30 -8 53.5t-28 46t-53.5 46.5t-84.5 54l-271 162q-71 42 -117.5 86t-74 90.5t-38.5 95.5t-11 103q0 70 18.5 132t59.5 111.5t107.5 84t162.5 49.5v172q0 17 12 29t29 12h186q17 0 29 -12t12 -29v-164q43 -2 86 -6t81.5 -8.5t70 -9.5t51.5 -9
q15 -3 26 -13t11 -26v-151q0 -16 -10 -26.5t-25 -10.5h-4q-102 9 -203 14.5t-201 5.5q-114 0 -164.5 -38t-50.5 -107q0 -26 7.5 -47t26.5 -42t51.5 -43.5t82.5 -49.5l246 -138q84 -47 139.5 -95t87.5 -99.5t45 -107t13 -115.5z" />
    <glyph glyph-name="quotesingle" unicode="'" horiz-adv-x="451" 
d="M424 1536q0 -3 -1 -7t-3 -9l-139 -424q-7 -22 -15.5 -30.5t-23.5 -8.5h-164q-11 0 -15 5.5t-4 14.5v9.5t2 9.5l105 424q5 21 15 30t26 9h192q25 0 25 -23z" />
    <glyph glyph-name="plus" unicode="+" 
d="M1122 729q0 -17 -12 -25t-29 -8h-331v-329q0 -17 -8 -29t-25 -12h-144q-17 0 -24.5 12t-7.5 29v329h-330q-17 0 -29 8t-12 25v143q0 17 12 25t29 8h330v332q0 17 7.5 29t24.5 12h144q17 0 25 -12t8 -29v-332h331q17 0 29 -8t12 -25v-143v0z" />
    <glyph glyph-name="less" unicode="&#x3c;" 
d="M1053 313q0 -11 -7 -19.5t-18 -8.5h-225q-17 0 -25.5 6.5t-19.5 15.5l-473 414q-25 22 -36 38.5t-11 41.5t11 41.5t36 38.5l473 413q11 10 19.5 16.5t25.5 6.5h225q11 0 18 -9t7 -20q0 -6 -3 -12.5t-10 -11.5l-532 -463l532 -463q13 -9 13 -25z" />
    <glyph glyph-name="equal" unicode="=" 
d="M1102 977q0 -17 -12 -25t-29 -8h-830q-17 0 -29 8t-12 25v143q0 17 12 25t29 8h830q17 0 29 -8t12 -25v-143zM1102 481q0 -17 -12 -24.5t-29 -7.5h-830q-17 0 -29 7.5t-12 24.5v144q0 17 12 24.5t29 7.5h830q17 0 29 -7.5t12 -24.5v-144z" />
    <glyph glyph-name="greater" unicode="&#x3e;" 
d="M1053 801q0 -25 -11.5 -41.5t-35.5 -38.5l-474 -414q-11 -9 -19.5 -15.5t-25.5 -6.5h-225q-11 0 -17.5 8.5t-6.5 19.5q0 16 12 25l532 463l-532 463q-6 5 -9 11.5t-3 12.5q0 11 6.5 20t17.5 9h225q17 0 25.5 -6.5t19.5 -16.5l474 -413q24 -22 35.5 -38.5t11.5 -41.5z" />
    <glyph glyph-name="bracketleft" unicode="[" horiz-adv-x="729" 
d="M672 -365q0 -15 -11 -23.5t-28 -8.5h-455q-15 0 -25 11.5t-10 27.5v1841q0 15 10 27t25 12h455q17 0 28 -9t11 -24v-150q0 -15 -11 -24.5t-28 -9.5h-215v-1485h215q17 0 28 -10t11 -25v-150v0z" />
    <glyph glyph-name="backslash" unicode="\" horiz-adv-x="788" 
d="M760 16q0 -12 -10.5 -22t-24.5 -10h-207q-17 0 -24.5 13.5t-12.5 29.5l-448 1454q0 3 -1 5t-1 5q0 12 10.5 21.5t24.5 9.5h204q17 0 26.5 -13t14.5 -28l447 -1454q0 -3 1 -5.5t1 -5.5z" />
    <glyph glyph-name="bracketright" unicode="]" horiz-adv-x="729" 
d="M586 -358q0 -16 -10 -27.5t-25 -11.5h-455q-17 0 -28 8.5t-11 23.5v150q0 15 11 25t28 10h215v1485h-215q-17 0 -28 8.5t-11 23.5v150q0 15 11 25t28 10h455q15 0 25 -12t10 -27v-1841v0z" />
    <glyph glyph-name="asciicircum" unicode="^" 
d="M1122 1174q0 -19 -24 -19h-209q-23 0 -34.5 8t-27.5 25l-182 209l-182 -209q-16 -17 -27.5 -25t-34.5 -8h-208q-25 0 -25 19q0 11 10 24l232 303q8 11 14.5 18t13.5 11.5t16 6t21 1.5h340q12 0 21 -1.5t16 -6t13.5 -11.5t15.5 -18l231 -303q10 -13 10 -24z" />
    <glyph glyph-name="underscore" unicode="_" horiz-adv-x="1071" 
d="M1135 -201q0 -17 -12 -24.5t-29 -7.5h-1117q-17 0 -28.5 7.5t-11.5 24.5v80q0 17 11.5 25t28.5 8h1117q17 0 29 -8t12 -25v-80v0z" />
    <glyph glyph-name="braceleft" unicode="{" horiz-adv-x="743" 
d="M723 -371q0 -15 -11 -25t-28 -10h-115q-115 0 -187.5 16.5t-113.5 56.5t-56 105.5t-15 164.5v311q0 81 -29 133.5t-92 95.5v164q63 43 91 95.5t28 133.5v310q0 98 15 164t56 105.5t113.5 56t187.5 16.5h117q17 0 28 -10t11 -25v-150q0 -15 -11 -23.5t-28 -8.5h-96
q-39 0 -62.5 -6t-36 -20.5t-16.5 -38.5t-4 -60v-310q0 -106 -36 -182t-124 -129q88 -53 125 -129t37 -182v-311q0 -36 4 -60.5t16.5 -38.5t36 -20t62.5 -6h94q17 0 28 -9t11 -24v-150v0z" />
    <glyph glyph-name="bar" unicode="|" horiz-adv-x="561" 
d="M418 -356q0 -17 -11 -29t-28 -12h-195q-17 0 -29 12t-12 29v1837q0 17 12 29t29 12h195q17 0 28 -12t11 -29v-1837v0z" />
    <glyph glyph-name="braceright" unicode="}" horiz-adv-x="743" 
d="M668 477q-63 -43 -92 -95.5t-29 -133.5v-311q0 -99 -15 -164.5t-56.5 -105.5t-114 -56.5t-187.5 -16.5h-115q-17 0 -28 10t-11 25v150q0 15 11 24t28 9h95q39 0 62.5 6t35.5 20t16 38.5t4 60.5v311q0 106 37 182t125 129q-88 53 -124 129t-36 182v310q0 36 -4 60
t-16 38.5t-35.5 20.5t-62.5 6h-97q-17 0 -28 8.5t-11 23.5v150q0 15 11 25t28 10h117q115 0 187.5 -16.5t114 -56t56.5 -105.5t15 -164v-310q0 -81 28 -133.5t91 -95.5v-164v0z" />
    <glyph glyph-name="asciitilde" unicode="~" 
d="M1130 973q0 -78 -16.5 -132t-49.5 -88t-82.5 -49.5t-115.5 -15.5q-17 0 -37 2.5t-41 7.5t-40.5 12.5t-34.5 18.5l-181 125q-24 17 -44 22t-35 5q-32 0 -53 -18.5t-21 -67.5v-54q0 -41 -35 -41h-145q-37 0 -37 41v54q0 153 67 219.5t199 66.5q34 0 77.5 -10.5t74.5 -32.5
l180 -123q25 -17 45.5 -21.5t36.5 -4.5q37 0 54 18t17 66v53q0 41 35 41h144q38 0 38 -41v-53v0z" />
    <glyph glyph-name="at" unicode="@" horiz-adv-x="1581" 
d="M1509 741q0 -186 -54.5 -310t-154 -198t-238.5 -104.5t-308 -30.5q-78 0 -142 18.5t-109.5 55t-71 91.5t-25.5 128q0 9 1 18.5t1 18.5l18 240q7 87 38 150.5t83 105t122 62t154 20.5q21 0 54 -3t71 -7.5t76 -10t70 -10.5q21 -3 34 -16.5t13 -36.5v-9l-60 -618
q79 12 131.5 50t83.5 96t43.5 134t12.5 166q0 93 -29 178t-89.5 150.5t-153.5 104t-220 38.5q-134 0 -239.5 -34t-181 -99t-119.5 -159.5t-56 -214.5l-31 -324q-2 -19 -3 -35t-1 -33q0 -90 31 -165.5t94.5 -130.5t159.5 -86t227 -31q36 0 76.5 1t79.5 3t75.5 4.5t65.5 5.5
h13q9 0 11.5 -3.5t2.5 -14.5v-76q0 -24 -27 -27q-46 -6 -122 -13t-175 -7q-147 0 -270 36.5t-211 105.5t-137 170t-49 230v32.5t2 33.5l30 334q13 144 70 262t153.5 201t230.5 128.5t302 45.5q163 0 285 -51.5t202 -136.5t120 -195t40 -228zM913 813q-27 5 -55.5 7.5
t-56.5 2.5q-39 0 -67 -9t-47 -28.5t-29.5 -50.5t-14.5 -76l-22 -229q-2 -9 -2.5 -18t-0.5 -17q0 -63 35 -88.5t115 -25.5h41h29t28 2z" />
    <glyph glyph-name="grave" unicode="`" horiz-adv-x="850" 
d="M559 1298q0 -14 -18 -14h-176q-19 0 -27 6.5t-21 20.5l-243 254q-8 8 -8 16q0 14 22 14h217q20 0 29.5 -7t23.5 -23l193 -246q8 -8 8 -21z" />
    <glyph glyph-name="quotedblbase" unicode="&#x201e;" horiz-adv-x="852" 
d="M846 287q0 -3 -1 -6.5t-3 -8.5l-178 -430q-8 -18 -15 -29.5t-24 -11.5h-142q-14 0 -22 8.5t-8 20.5q0 8 2 12l125 430q6 19 15 29t26 10h196q13 0 21 -6.5t8 -17.5zM416 287q0 -3 -1 -6.5t-3 -8.5l-179 -430q-8 -18 -14.5 -29.5t-23.5 -11.5h-142q-14 0 -22 8.5t-8 20.5
q0 8 2 12l125 430q6 19 14.5 29t25.5 10h197q12 0 20.5 -6.5t8.5 -17.5z" />
    <glyph glyph-name="dagger" unicode="&#x2020;" horiz-adv-x="870" 
d="M805 977q0 -16 -11 -24.5t-28 -8.5h-203v-915q0 -17 -8 -29t-25 -12h-208q-17 0 -25 12t-8 29v915h-183q-17 0 -27.5 8.5t-10.5 24.5v164q0 15 10.5 22.5t27.5 7.5h183v349q0 15 9 27t26 12h206q16 0 24.5 -12t8.5 -27v-349h203q17 0 28 -7.5t11 -22.5v-164v0z" />
    <glyph glyph-name="daggerdbl" unicode="&#x2021;" horiz-adv-x="870" 
d="M805 547q0 -16 -11 -24.5t-28 -8.5h-203v-485q0 -17 -8 -29t-25 -12h-208q-17 0 -25 12t-8 29v485h-183q-17 0 -27.5 8.5t-10.5 24.5v164q0 15 10.5 22.5t27.5 7.5h183v203h-183q-17 0 -27.5 8.5t-10.5 24.5v164q0 15 10.5 22.5t27.5 7.5h183v349q0 15 9 27t26 12h206
q16 0 24.5 -12t8.5 -27v-349h203q17 0 28 -7.5t11 -22.5v-164q0 -16 -11 -24.5t-28 -8.5h-203v-203h203q17 0 28 -7.5t11 -22.5v-164v0z" />
    <glyph glyph-name="Euro" unicode="&#x2c6;" 
d="M1167 63q0 -21 -12.5 -30.5t-32.5 -16.5q-11 -3 -37 -8.5t-64.5 -10.5t-88.5 -9t-109 -4q-58 0 -122 10t-128 34.5t-123 64t-106.5 98.5t-79.5 138.5t-41 184.5h-78q-17 0 -29 12t-12 29v98q0 17 12 29t29 12h74v140h-74q-17 0 -29 11.5t-12 28.5v99q0 17 12 29t29 12h78
q11 106 44 186t80.5 138.5t106.5 96.5t122 61t127 32.5t122 9.5q59 0 108.5 -4t88 -9.5t64 -11t36.5 -8.5q20 -6 32.5 -15.5t12.5 -31.5v-137q0 -19 -8.5 -31t-30.5 -12h-6q-72 6 -141.5 11t-151.5 5q-57 0 -109.5 -15t-94.5 -48t-71.5 -86.5t-41.5 -130.5h504
q14 0 23.5 -9.5t9.5 -21.5q0 -3 -1 -5t-1 -5l-27 -99q-5 -17 -14.5 -28.5t-26.5 -11.5h-473v-140h422q14 0 23.5 -9t9.5 -21q0 -4 -1.5 -6t-1.5 -5l-26 -98q-5 -17 -14.5 -29t-26.5 -12h-381q12 -78 41.5 -132.5t71.5 -89t94.5 -50t109.5 -15.5q41 0 76.5 1.5t70.5 4t71 5.5
t77 6h6q22 0 30.5 -12.5t8.5 -30.5v-138v0z" />
    <glyph glyph-name="perthousand" unicode="&#x2030;" horiz-adv-x="2380" 
d="M2298 332q0 -176 -76.5 -260t-214.5 -84t-215.5 84t-77.5 260v168q0 175 77.5 259.5t215.5 84.5t214.5 -84.5t76.5 -259.5v-168zM1581 332q0 -176 -76 -260t-215 -84q-138 0 -215.5 84t-77.5 260v168q0 175 77.5 259.5t215.5 84.5q139 0 215 -84.5t76 -259.5v-168z
M1380 1505q0 -11 -8 -24l-854 -1444q-12 -22 -21 -32.5t-26 -10.5h-172q-11 0 -15.5 5t-4.5 13q0 14 8 25l854 1444q14 23 23 32t26 9h172q18 0 18 -17zM666 1022q0 -176 -76.5 -260t-214.5 -84q-139 0 -216 84t-77 260v168q0 175 77 258.5t216 83.5q138 0 214.5 -83.5
t76.5 -258.5v-168zM2124 500q0 54 -8 90.5t-23 58.5t-36.5 31.5t-49.5 9.5t-50 -9.5t-37.5 -31.5t-23.5 -58.5t-8 -90.5v-168q0 -55 8 -91.5t23.5 -58.5t37.5 -31.5t50 -9.5t49.5 9.5t36.5 31.5t23 58.5t8 91.5v168zM1407 500q0 54 -8 90.5t-23 58.5t-36.5 31.5t-49.5 9.5
q-27 0 -49 -9.5t-37.5 -31.5t-24 -58.5t-8.5 -90.5v-168q0 -55 8.5 -91.5t24 -58.5t37.5 -31.5t49 -9.5q28 0 49.5 9.5t36.5 31.5t23 58.5t8 91.5v168zM492 1190q0 54 -8 90.5t-23 58.5t-36.5 31.5t-49.5 9.5t-50 -9.5t-37.5 -31.5t-23.5 -58.5t-8 -90.5v-168q0 -54 8 -91
t23.5 -59.5t37.5 -32.5t50 -10t49.5 10t36.5 32.5t23 59.5t8 91v168z" />
    <glyph glyph-name="guilsinglleft" unicode="&#x2039;" horiz-adv-x="823" 
d="M717 158q0 -8 -7.5 -15.5t-23.5 -7.5h-194q-26 0 -37 6.5t-25 20.5l-332 364q-11 11 -13.5 26t-2.5 26t2.5 25.5t13.5 25.5l332 364q14 14 25 20.5t37 6.5h194q16 0 23.5 -7.5t7.5 -15.5t-6 -14l-371 -405l371 -406q6 -6 6 -14z" />
    <glyph glyph-name="quoteleft" unicode="&#x2018;" horiz-adv-x="440" 
d="M401 1538v-9t-2 -9l-104 -424q-5 -22 -15.5 -30.5t-25.5 -8.5h-193q-22 0 -22 22v7.5t2 9.5l139 424q6 21 15 30t24 9h164q11 0 14.5 -6t3.5 -15z" />
    <glyph glyph-name="quoteright" unicode="&#x2019;" horiz-adv-x="440" 
d="M401 1536v-7t-2 -9l-139 -424q-6 -22 -14.5 -30.5t-24.5 -8.5h-164q-11 0 -14.5 5.5t-3.5 14.5v9.5t2 9.5l104 424q5 21 15.5 30t25.5 9h193q22 0 22 -23z" />
    <glyph glyph-name="quotedblleft" unicode="&#x201c;" horiz-adv-x="852" 
d="M813 1538v-9t-2 -9l-104 -424q-5 -22 -15.5 -30.5t-25.5 -8.5h-193q-22 0 -22 22v7.5t2 9.5l139 424q6 21 14.5 30t24.5 9h164q11 0 14.5 -6t3.5 -15zM401 1538v-9t-2 -9l-104 -424q-5 -22 -15.5 -30.5t-25.5 -8.5h-193q-22 0 -22 22v7.5t2 9.5l139 424q6 21 15 30t24 9
h164q11 0 14.5 -6t3.5 -15z" />
    <glyph glyph-name="quotedblright" unicode="&#x201d;" horiz-adv-x="852" 
d="M813 1536v-7t-2 -9l-139 -424q-6 -22 -15 -30.5t-24 -8.5h-164q-11 0 -14.5 5.5t-3.5 14.5v9.5t2 9.5l104 424q5 21 15.5 30t25.5 9h193q22 0 22 -23zM401 1536v-7t-2 -9l-139 -424q-6 -22 -14.5 -30.5t-24.5 -8.5h-164q-11 0 -14.5 5.5t-3.5 14.5v9.5t2 9.5l104 424
q5 21 15.5 30t25.5 9h193q22 0 22 -23z" />
    <glyph glyph-name="bullet" unicode="&#x2022;" horiz-adv-x="856" 
d="M764 752q0 -70 -26.5 -131.5t-72 -107t-106.5 -71.5t-131 -26t-131 26t-106.5 71.5t-72 107t-26.5 131.5t26.5 131t72 106.5t106.5 71.5t131 26t131 -26t106.5 -71.5t72 -106.5t26.5 -131z" />
    <glyph glyph-name="trademark" unicode="&#x2122;" horiz-adv-x="1667" 
d="M1583 713q0 -21 -20 -21h-131q-21 0 -21 21v501q0 50 -4.5 81t-22 47.5t-52 22t-93.5 5.5v-657q0 -10 -6.5 -15.5t-15.5 -5.5h-132q-20 0 -20 21v657q-51 0 -94 -2.5t-78 -5.5v-649q0 -21 -21 -21h-129q-9 0 -15.5 5.5t-6.5 15.5v739q0 31 10.5 42.5t36.5 14.5
q58 6 108.5 10t96.5 6.5t89.5 3.5t88.5 1q112 0 193.5 -9.5t134.5 -42.5t78.5 -95.5t25.5 -168.5v-501zM653 1403q0 -13 -9.5 -20t-20.5 -7h-181v-655q0 -11 -8 -20t-20 -9h-121q-13 0 -21 9t-8 20v655h-184q-11 0 -20 7t-9 20v90q0 12 8 20.5t21 8.5h543q12 0 21 -8.5
t9 -20.5v-90z" />
    <glyph glyph-name="guilsinglright" unicode="&#x203a;" horiz-adv-x="823" 
d="M741 578q0 -11 -2.5 -26t-13.5 -26l-332 -364q-7 -7 -12.5 -12t-12 -8.5t-15 -5t-21.5 -1.5h-195q-15 0 -23 7.5t-8 15.5q0 7 7 14l370 406l-370 405q-7 7 -7 14q0 8 8 15.5t23 7.5h195q13 0 21.5 -1.5t15 -5t12 -8.5t12.5 -12l332 -364q11 -11 13.5 -25.5t2.5 -25.5z
" />
    <glyph glyph-name="currency" unicode="&#xa4;" 
d="M1167 63q0 -21 -12.5 -30.5t-32.5 -16.5q-11 -3 -37 -8.5t-64.5 -10.5t-88.5 -9t-109 -4q-58 0 -122 10t-128 34.5t-123 64t-106.5 98.5t-79.5 138.5t-41 184.5h-78q-17 0 -29 12t-12 29v98q0 17 12 29t29 12h74v140h-74q-17 0 -29 11.5t-12 28.5v99q0 17 12 29t29 12h78
q11 106 44 186t80.5 138.5t106.5 96.5t122 61t127 32.5t122 9.5q59 0 108.5 -4t88 -9.5t64 -11t36.5 -8.5q20 -6 32.5 -15.5t12.5 -31.5v-137q0 -19 -8.5 -31t-30.5 -12h-6q-72 6 -141.5 11t-151.5 5q-57 0 -109.5 -15t-94.5 -48t-71.5 -86.5t-41.5 -130.5h504
q14 0 23.5 -9.5t9.5 -21.5q0 -3 -1 -5t-1 -5l-27 -99q-5 -17 -14.5 -28.5t-26.5 -11.5h-473v-140h422q14 0 23.5 -9t9.5 -21q0 -4 -1.5 -6t-1.5 -5l-26 -98q-5 -17 -14.5 -29t-26.5 -12h-381q12 -78 41.5 -132.5t71.5 -89t94.5 -50t109.5 -15.5q41 0 76.5 1.5t70.5 4t71 5.5
t77 6h6q22 0 30.5 -12.5t8.5 -30.5v-138v0z" />
    <glyph glyph-name="brokenbar" unicode="&#xa6;" horiz-adv-x="561" 
d="M418 743q0 -17 -11 -30t-28 -13h-195q-17 0 -29 13t-12 30v707q0 17 12 29t29 12h195q17 0 28 -12t11 -29v-707zM418 -389q0 -17 -11 -30t-28 -13h-195q-17 0 -29 13t-12 30v706q0 17 12 29t29 12h195q17 0 28 -12t11 -29v-706z" />
    <glyph glyph-name="section" unicode="&#xa7;" horiz-adv-x="1174" 
d="M1083 -6q0 -81 -26 -159.5t-88 -140t-165 -99t-257 -37.5q-116 0 -209.5 11t-167.5 28q-15 3 -28 12t-13 26v160q0 17 13 27t28 10h4q91 -9 181.5 -17t181.5 -8h14q67 1 111 14.5t69 37t35 56.5t10 73q0 30 -7 53.5t-25.5 45.5t-50.5 45.5t-83 53.5l-256 152
q-79 47 -130 93t-81 94t-41.5 100t-11.5 112q0 62 13 115t44 96q-32 50 -44.5 101.5t-12.5 113.5q0 85 26 154t85.5 118t157 76t241.5 27q51 0 110.5 -3.5t116 -8.5t104 -12t73.5 -13q15 -3 26.5 -13t11.5 -26v-162q0 -15 -10.5 -25.5t-27.5 -10.5h-3q-99 6 -198 14t-199 8
h-6q-114 0 -162.5 -34t-48.5 -103q0 -26 7 -47t25 -42t50 -43.5t82 -49.5l246 -138q84 -47 139.5 -93.5t88 -96.5t45.5 -104t13 -115q0 -57 -12 -112.5t-41 -106.5q31 -48 42 -98t11 -109zM842 422q0 40 -9 70.5t-33 59t-66 59t-107 69.5l-162 96q-34 20 -61.5 38t-49.5 38
q-39 -47 -39 -123q0 -35 9 -62t31 -52.5t59.5 -53t95.5 -61.5l158 -94q98 -59 149 -107q14 26 19.5 57t5.5 66z" />
    <glyph glyph-name="copyright" unicode="&#xa9;" horiz-adv-x="1536" 
d="M1444 766q0 -93 -24.5 -179.5t-68.5 -161t-106 -136t-137.5 -105.5t-162 -68t-179.5 -24q-140 0 -262.5 53t-214 144.5t-144.5 214t-53 262.5t53 263.5t144.5 216t214 146.5t262.5 54q93 0 179.5 -24.5t162 -69t137.5 -106.5t106 -137.5t68.5 -162.5t24.5 -180zM1343 766
q0 119 -45.5 224.5t-124 184.5t-183.5 125t-224 46t-224 -46t-183 -125t-123.5 -184.5t-45.5 -224.5t45.5 -223.5t123.5 -182t183 -122.5t224 -45t224 45t183.5 122.5t124 182t45.5 223.5zM977 375q0 -14 -8 -20t-21 -9q-25 -6 -69 -12t-107 -6q-75 0 -137 22t-105.5 68.5
t-67.5 119t-24 173.5v123q0 100 24 172.5t67.5 119.5t105.5 69t137 22q63 0 108 -6.5t68 -12.5q13 -3 21 -8t8 -19v-100q0 -15 -8.5 -19.5t-18.5 -4.5h-4q-34 3 -74.5 6.5t-99.5 3.5q-31 0 -59 -10t-49.5 -35.5t-34.5 -68.5t-13 -109v-123q0 -68 13 -111.5t34.5 -68.5
t49.5 -34.5t59 -9.5q53 0 96.5 4t77.5 7h4q10 0 18.5 -4.5t8.5 -20.5v-98z" />
    <glyph glyph-name="logicalnot" unicode="&#xac;" 
d="M1102 416q0 -17 -12 -29t-29 -12h-127q-17 0 -29 12t-12 29v530h-662q-17 0 -29 8t-12 25v143q0 17 12 25t29 8h834q15 0 26 -9.5t11 -25.5v-704v0z" />
    <glyph glyph-name="degree" unicode="&#xb0;" horiz-adv-x="723" 
d="M668 1233q0 -63 -24 -118.5t-66 -97t-97.5 -65.5t-118.5 -24t-118.5 24t-97 65.5t-65.5 97t-24 118.5t24 118.5t65.5 97t97 65.5t118.5 24t118.5 -24t97.5 -65.5t66 -97t24 -118.5zM524 1233q0 33 -13 62.5t-35 51.5t-51.5 35t-62.5 13t-62 -13t-50.5 -35t-34 -51.5
t-12.5 -62.5t12.5 -62t34 -51t50.5 -34.5t62 -12.5t62.5 12.5t51.5 34.5t35 51t13 62z" />
    <glyph glyph-name="plusminus" unicode="&#xb1;" 
d="M1122 729q0 -17 -12 -25t-29 -8h-331v-329q0 -17 -8 -29t-25 -12h-144q-17 0 -24.5 12t-7.5 29v329h-330q-17 0 -29 8t-12 25v143q0 17 12 25t29 8h330v332q0 17 7.5 29t24.5 12h144q17 0 25 -12t8 -29v-332h331q17 0 29 -8t12 -25v-143zM1122 2q0 -17 -12 -25t-29 -8
h-870q-17 0 -29 8t-12 25v115q0 17 12 25t29 8h870q17 0 29 -8t12 -25v-115z" />
    <glyph glyph-name="mu" unicode="&#xb5;" horiz-adv-x="1202" 
d="M1079 86q0 -20 -12 -32.5t-43 -20.5q-77 -20 -182.5 -34.5t-233.5 -14.5q-69 0 -121.5 17t-89.5 46v-399q0 -17 -10 -29t-27 -12h-198q-17 0 -28 12t-11 29v1464q0 17 12 30t29 13h190q17 0 29 -13t12 -30v-709q0 -196 213 -196q50 0 103.5 5.5t93.5 16.5v883q0 17 12 30
t29 13h190q17 0 30 -13t13 -30v-1026v0z" />
    <glyph glyph-name="mu" unicode="&#x3bc;" horiz-adv-x="1202" 
d="M1079 86q0 -20 -12 -32.5t-43 -20.5q-77 -20 -182.5 -34.5t-233.5 -14.5q-69 0 -121.5 17t-89.5 46v-399q0 -17 -10 -29t-27 -12h-198q-17 0 -28 12t-11 29v1464q0 17 12 30t29 13h190q17 0 29 -13t12 -30v-709q0 -196 213 -196q50 0 103.5 5.5t93.5 16.5v883q0 17 12 30
t29 13h190q17 0 30 -13t13 -30v-1026v0z" />
    <glyph glyph-name="paragraph" unicode="&#xb6;" horiz-adv-x="1319" 
d="M1196 -360q0 -16 -9.5 -27.5t-25.5 -11.5h-71q-16 0 -25.5 11.5t-9.5 27.5v1744h-125v-1744q0 -16 -10 -27.5t-25 -11.5h-72q-15 0 -25 11.5t-10 27.5v872h-202q-106 0 -196.5 30t-156.5 88t-103.5 143t-37.5 196v96q0 111 37.5 196t103.5 143t156.5 88t196.5 30h577
q19 0 26 -10.5t7 -28.5v-1843v0z" />
    <glyph glyph-name="periodcentered" unicode="&#xb7;" horiz-adv-x="530" 
d="M397 674q0 -17 -12 -29t-29 -12h-182q-17 0 -29 12t-12 29v231q0 17 12 28t29 11h182q17 0 29 -11t12 -28v-231v0z" />
    <glyph glyph-name="periodcentered" unicode="&#x2219;" horiz-adv-x="530" 
d="M397 674q0 -17 -12 -29t-29 -12h-182q-17 0 -29 12t-12 29v231q0 17 12 28t29 11h182q17 0 29 -11t12 -28v-231v0z" />
    </font>
</defs>
</svg>
